<?xml version="1.0" encoding="utf-8"?>
<COLLADA xmlns="http://www.collada.org/2005/11/COLLADASchema" version="1.4.1" xmlns:xsi="http://www.w3.org/2001/XMLSchema-instance">
  <asset>
    <contributor>
      <author>Blender User</author>
      <authoring_tool>Blender 4.5.11 LTS commit date:2026-06-22, commit time:11:08, hash:4db51e9d1e1e</authoring_tool>
    </contributor>
    <created>2026-08-07T00:14:11</created>
    <modified>2026-08-07T00:14:11</modified>
    <unit name="meter" meter="1"/>
    <up_axis>Z_UP</up_axis>
  </asset>
  <library_effects>
    <effect id="Bark-effect">
      <profile_COMMON>
        <technique sid="common">
          <lambert>
            <emission>
              <color sid="emission">0 0 0 1</color>
            </emission>
            <diffuse>
              <color sid="diffuse">0.207595 0.138513 0.055181 1</color>
            </diffuse>
            <reflectivity>
              <float sid="specular">0.5</float>
            </reflectivity>
          </lambert>
        </technique>
      </profile_COMMON>
    </effect>
    <effect id="Tree-effect">
      <profile_COMMON>
        <technique sid="common">
          <lambert>
            <emission>
              <color sid="emission">0 0 0 1</color>
            </emission>
            <diffuse>
              <color sid="diffuse">0.256861 0.440506 0.110769 1</color>
            </diffuse>
            <reflectivity>
              <float sid="specular">0.5</float>
            </reflectivity>
          </lambert>
        </technique>
      </profile_COMMON>
    </effect>
  </library_effects>
  <library_images/>
  <library_materials>
    <material id="Bark-material" name="Bark">
      <instance_effect url="#Bark-effect"/>
    </material>
    <material id="Tree-material" name="Tree">
      <instance_effect url="#Tree-effect"/>
    </material>
  </library_materials>
  <library_geometries>
    <geometry id="Tree_lp_11-mesh" name="Tree_lp_11">
      <mesh>
        <source id="Tree_lp_11-mesh-positions">
          <float_array id="Tree_lp_11-mesh-positions-array" count="843">-3.658489 9.58857 -4.93474 -10.67192 1.71537 -4.648065 -6.318306 -7.771153 -4.611922 3.805463 -9.973764 -4.823635 9.958426 -1.600684 -5.096974 6.998046 8.607145 -5.177513 5.486009 9.008166 19.72513 4.422372 5.494314 23.69049 6.842936 0.5501693 24.25807 10.62354 -0.641064 20.30379 11.68716 2.872751 16.33842 9.266611 7.816888 15.77091 18.05949 16.48183 31.94193 15.93056 12.47672 34.40752 18.25867 8.018655 34.33634 23.05689 7.369019 32.69231 24.95818 11.21601 29.82187 22.24412 15.40594 29.20716 24.74115 21.51271 52.11228 22.16443 18.02128 54.25521 24.10574 13.84111 55.18839 28.79039 12.92515 54.561 31.14345 16.13805 51.81117 29.05448 20.13431 50.47725 32.14447 32.14684 67.73484 30.18573 29.20829 69.90029 32.19933 26.20684 72.35228 36.20611 25.44259 70.77246 37.97138 28.00669 68.03923 36.46693 31.99339 67.08101 37.15923 42.15714 84.70358 34.46692 40.12736 86.67591 35.78055 37.15792 88.94733 39.61395 36.55799 89.13557 42.26436 39.14029 87.88412 40.95651 42.03325 85.513 31.40685 57.07839 100.8643 29.21316 54.5366 101.4492 29.9535 51.73657 103.6328 33.5511 51.43281 103.9772 35.72122 54.01281 103.4773 34.66597 57.32304 102.4364 27.88628 57.79356 121.0101 26.02048 55.56732 121.4946 26.91455 52.9084 122.3528 29.83142 52.30499 122.341 31.66355 54.40741 121.3942 30.79786 57.17077 120.9257 -9.272466 2.535859 21.39481 -10.85926 -1.101541 17.7339 -8.885321 -6.251201 17.34571 -4.975329 -7.519537 21.13978 -3.388533 -3.882158 24.80069 -5.362496 1.267495 25.18888 -21.88395 -4.245509 34.30427 -24.70601 -8.110051 32.45101 -22.22097 -12.535 31.9266 -17.8458 -13.47843 34.12948 -15.32562 -9.757773 36.60721 -17.27982 -5.079792 36.03377 -25.73756 -5.775029 56.59398 -28.45574 -9.812501 55.51927 -26.62243 -14.13301 55.21112 -21.81891 -15.15118 56.06217 -19.09954 -11.01793 55.45708 -20.93279 -6.690256 55.63947 -21.52428 -7.422346 76.93556 -23.95563 -10.70705 76.3304 -22.91132 -14.8698 77.52817 -18.5648 -15.30714 76.78079 -16.14258 -12.00347 76.24604 -17.16639 -7.883184 77.59858 -24.33141 -7.41865 96.96284 -27.21336 -10.09472 96.23289 -25.88969 -13.89687 95.98191 -22.17844 -14.7031 96.88197 -19.75016 -12.17434 98.80828 -20.88754 -8.311671 98.56777 -27.8966 -7.342031 61.16186 -21.88618 -8.155226 58.41983 -30.30704 -6.305459 56.58994 -24.33609 -7.063298 53.28836 -31.4424 -11.42508 56.05339 -25.61751 -12.67974 52.70503 -29.03196 -12.46173 60.62537 -23.16761 -13.77166 57.8365 -37.58479 -4.649586 67.46907 -41.14865 -3.088105 64.7168 -42.59043 -7.615606 64.34673 -39.94002 -8.737304 68.14554 -46.9946 -3.965837 79.44263 -49.51039 -2.485717 76.31436 -50.42991 -6.49993 75.15565 -47.91956 -7.980022 78.28739 -53.67446 -3.092364 83.04358 -56.49443 -1.753382 80.39638 -56.46626 -5.513333 78.77891 -54.53889 -6.975521 82.08078 -59.00156 -8.871649 89.2527 -62.44886 -7.953877 87.78721 -61.95093 -10.71138 85.13792 -58.77944 -11.95424 86.94572 -15.9116 -7.289674 40.75405 -20.05601 -4.784291 35.59217 -17.73132 -12.631 40.17065 -22.15202 -10.65351 34.80624 -13.35231 -13.71993 36.73276 -17.42561 -11.80944 30.83341 -11.53259 -8.378675 37.3161 -15.32959 -5.940207 31.61935 -4.531704 -10.29593 47.68001 -6.234449 -14.03931 47.88275 -5.076309 -14.86736 44.01924 -3.373565 -11.12397 43.8165 2.176153 -15.3657 49.94348 0.2082751 -18.76357 50.27304 0.9323222 -19.26317 46.43205 3.954883 -16.75059 46.71155 6.788194 -19.83137 53.3076 4.427343 -22.65817 53.59226 6.647111 -24.76185 51.5203 8.60101 -21.73315 50.71094 9.900559 -19.81792 59.17739 8.48221 -22.79517 60.33953 11.39525 -24.48939 59.40662 12.92898 -21.45895 58.57558 11.43115 -17.43299 68.64159 10.18417 -20.73185 68.25576 13.32763 -22.03259 69.26222 14.48126 -19.0248 67.7761 10.78452 -17.18326 78.10334 9.799189 -20.07448 76.81006 12.62104 -21.43182 77.90395 13.55066 -18.45158 76.78357 -15.04026 -14.93972 50.09609 -16.38624 -17.1102 46.85343 -12.57335 -18.50338 46.10625 -11.22737 -16.33291 49.34893 -15.78506 -22.87262 54.67491 -17.07583 -24.52725 51.39097 -13.3726 -25.306 50.45961 -12.25864 -24.42455 54.08865 -18.01514 -29.99017 56.53173 -19.12283 -31.04264 53.19006 -16.26919 -33.3432 52.93447 -14.8972 -31.86134 56.00417 -21.93889 -33.67917 60.44334 -24.02744 -36.05608 58.97724 -21.45609 -38.40761 59.11841 -19.3582 -36.02199 60.55691 -22.11165 -33.86434 69.29645 -24.24204 -36.30839 68.18048 -21.97145 -38.74602 68.99248 -19.64153 -36.24153 69.22924 -26.02445 -35.00633 77.95345 -27.22312 -37.31359 75.6137 -25.78588 -39.72967 77.6948 -23.46935 -37.20029 77.00807 40.07409 42.43315 81.20442 38.82083 34.71025 82.1735 40.38914 41.83127 76.78915 39.21453 34.21448 77.15936 36.04953 42.80426 76.36526 34.27059 35.14926 76.67829 35.73447 43.40621 80.78052 33.87689 35.64503 81.69314 41.94003 49.84735 79.9209 42.20733 49.06797 75.84586 38.07994 49.50705 75.61021 38.07171 51.26939 79.37569 43.7762 57.04626 76.20769 43.04932 54.84977 72.96022 40.00667 57.31055 72.19541 39.81829 57.52794 76.17214 48.05837 63.19324 74.28416 47.82962 62.82248 70.64765 45.34144 65.50616 70.49777 45.14289 65.40653 74.15379 53.13533 68.00291 74.85934 55.09713 68.99695 71.81475 52.31843 71.50939 72.08734 53.22798 71.65579 75.72872 62.51111 69.15911 76.88605 64.55735 69.60253 74.22212 63.0531 72.62976 74.44731 63.12206 72.35647 77.82376 12.94069 -20.68681 88.35403 -28.63533 -37.58304 87.04402 75.62067 40.53675 141.5505 47.91893 29.44025 168.8124 41.20018 23.13813 129.4564 56.19338 54.62702 109.0269 16.48525 52.23876 116.1884 11.37134 36.67247 153.1377 67.06456 64.82404 172.7055 72.17868 80.39011 135.7562 42.34962 93.92454 159.4374 35.63087 87.62269 120.0814 7.929343 76.52632 147.3434 27.35642 62.43577 179.867 -56.40491 -40.40161 149.9648 -5.938007 -47.86064 146.665 -24.41982 -11.18971 177.1131 -34.81991 -49.4406 104.5133 10.50537 -25.81515 103.5714 16.93297 -2.174817 148.4407 -64.72418 9.894227 153.7798 -48.28077 31.93971 110.6862 -71.15173 -13.74607 108.9105 -29.79893 -4.73119 80.23812 2.186136 24.48069 107.3871 -19.39884 33.51967 152.8379 -83.97084 -46.42012 116.5851 -75.74826 -20.2899 134.3625 -98.0372 -17.55158 110.6534 -88.73399 -36.59423 85.8086 -83.45492 -4.391251 84.56483 -75.42894 5.685398 114.573 -52.66912 -41.02497 124.1711 -60.69474 -51.10157 94.16297 -38.0867 -27.86466 98.08251 -60.37585 -25.12634 74.37341 -52.15313 1.003937 92.15089 -47.39005 -8.821938 122.9273 0.1817396 -8.198241 93.06907 12.28423 -15.20716 106.4759 19.01407 -3.696911 92.42 9.515853 -8.004285 76.09336 27.3871 -14.89329 79.00828 29.09806 -19.34487 97.78622 -1.373291 -26.62828 98.83617 -3.084234 -22.17669 80.05825 6.99972 -37.82462 85.42446 13.72963 -26.31441 71.36856 25.83203 -33.32332 84.77539 16.49793 -33.51728 101.7511 97.04232 76.52214 79.46424 80.65713 87.8674 65.29936 81.18628 92.29939 89.33983 85.414 64.12768 61.88623 62.37035 72.24422 60.89734 59.75773 89.65567 77.8642 86.27014 71.29884 100.7841 67.98387 55.67566 96.38208 88.88319 53.88766 83.81675 67.45436 51.24373 72.34181 51.59818 67.02079 82.21672 63.22705 79.41545 99.79549 13.97043 31.74143 149.2795 31.71925 15.20104 158.0431 21.20943 11.69498 134.7481 -3.693642 18.27074 136.1669 3.138182 -6.595036 136.8271 25.02455 -8.492238 150.3475 13.31153 23.94366 173.8593 -8.574795 25.84083 160.3389 -4.759739 5.653646 175.9376 -15.2695 2.147587 152.6427 2.479302 -14.39285 161.4069 20.14337 -0.9221231 174.5196 -2.530984 7.971733 16.7255 -8.793502 1.355353 15.34451 -4.979122 -5.834188 15.26524 -8.244122 -9.6769 40.99716 3.369207 -7.580262 16.37753 9.192918 -0.7245954 14.20295 5.955352 6.75625 14.44138 -0.3365868 3.653388 24.36334 2.261851 -3.195704 24.2101 -13.36946 -8.534773 44.56924 -15.71507 -14.37082 44.27894 -10.61419 -14.818 41.21161 -10.08245 -13.17062 47.29948 -28.91372 -35.69047 87.0977 -30.20156 -37.81416 85.56808 -28.34698 -39.47478 86.95687 11.02839 -21.32013 87.17369 13.52647 -22.2087 86.52741 -26.85947 -37.3338 87.82138 12.13064 -18.91437 88.25643 14.64071 -19.81631 87.71262</float_array>
          <technique_common>
            <accessor source="#Tree_lp_11-mesh-positions-array" count="281" stride="3">
              <param name="X" type="float"/>
              <param name="Y" type="float"/>
              <param name="Z" type="float"/>
            </accessor>
          </technique_common>
        </source>
        <source id="Tree_lp_11-mesh-normals">
          <float_array id="Tree_lp_11-mesh-normals-array" count="843">-0.333082 0.9400985 0.07260447 -0.3843426 0.4547438 0.8034232 -0.8922555 0.1462128 0.4272025 -0.4330832 0.8890122 -0.1486485 0.09771513 -0.4741372 0.8750118 -0.4021473 -0.6999313 0.590232 0.6613689 -0.737675 0.1357455 0.4706186 -0.8793091 0.0730341 0.8068301 -0.143628 -0.5730586 0.88392 -0.1332549 -0.4482505 0.3551815 0.6484858 -0.6732847 0.406872 0.6887831 -0.6000276 -0.951707 0.1352319 0.2756197 -0.454317 0.847109 -0.2756856 -0.5871971 -0.6198611 0.5205495 0.3089214 -0.8933731 0.3262697 0.9246758 -0.248923 -0.2881182 0.5549206 0.6330352 -0.5397496 -0.9381709 0.2919384 0.1860308 -0.5133299 0.7773895 -0.3635357 -0.5493581 -0.6117391 0.5691933 0.5024159 -0.8134987 0.2929134 0.943706 -0.2057479 -0.2590116 0.5753154 0.5765009 -0.5802233 -0.9485102 0.2191101 -0.2287339 -0.3070477 0.7127079 -0.6306895 -0.5923557 -0.6872447 0.4204872 0.277979 -0.7555802 0.5931496 0.9437787 -0.230789 0.2366818 0.6940219 0.5490426 -0.46571 -0.920955 0.1828187 -0.344121 -0.3143671 0.7954723 -0.5180706 -0.7414112 -0.6679834 0.06409066 0.3574989 -0.7993338 0.4829701 0.9536443 -0.0450325 0.2975477 0.6021298 0.7915669 -0.1042195 -0.9849613 0.07855641 -0.1538836 -0.4032226 0.9125649 0.06809395 -0.6333253 -0.7738018 -0.01139348 0.2292618 -0.9592081 0.1654049 0.9439578 -0.2377925 0.2289071 0.7239909 0.6798668 0.116698 -0.8258516 0.1643477 -0.5394062 -0.9095655 0.1451313 -0.3893939 -0.4456017 0.8938364 -0.0499556 -0.5660963 0.8241621 0.01708322 -0.4164211 -0.6317066 -0.6538656 -0.494507 -0.7165355 -0.4919754 0.2031232 -0.9720821 0.1174629 0.3116273 -0.9456184 -0.0932433 0.4156941 -0.3976487 0.8179695 0.9089328 -0.2144475 0.3575661 0.04630637 0.5661441 0.8230047 0.4527822 0.7493845 0.4831266 -0.9909274 0.1311691 0.02928596 -0.433505 0.8995823 0.05315268 -0.7229144 -0.6902524 -0.03076487 0.2860234 -0.9572533 -0.04309141 0.995312 -0.09595853 0.01207953 0.6428304 0.7629664 0.06820237 -0.9601112 0.2716217 0.06639552 -0.3832712 0.9230059 -0.03410816 -0.6794477 -0.7328682 -0.03542852 0.4089853 -0.9089336 -0.08106011 0.9748908 -0.1973582 -0.1031394 0.7581664 0.6519446 0.01233428 -0.2460552 0.9667224 0.07003295 -0.939903 0.3198535 -0.119483 -0.7089944 -0.6998382 -0.08691149 0.229622 -0.965357 0.1239342 0.9310944 -0.2085264 0.2992991 0.6650447 0.7186369 0.2031663 -0.1873262 0.8261215 -0.5314436 -0.1950093 0.8088948 -0.5546718 0.5114889 0.5507121 0.6596176 0.4078592 0.5606194 0.7206641 -0.5022351 -0.5431605 -0.6728571 -0.5554291 -0.527749 -0.6426349 0.09568923 -0.8098027 0.5788464 0.08553892 -0.8316348 0.5486955 -0.1936606 0.9383806 -0.2862474 -0.4148883 0.8998251 -0.1348432 0.3983729 0.5652936 0.7223173 0.6135823 0.4010537 0.6802005 -0.6697971 -0.4609583 -0.582142 -0.5021006 -0.2536557 -0.8267732 0.2299222 -0.8757305 0.4245372 0.5201899 -0.8453033 0.1219213 -0.7251762 0.6846636 0.07318001 0.5911637 0.3711704 0.7160713 -0.678662 -0.2404466 -0.6939765 0.5798499 -0.813833 -0.03808081 -0.7353887 -0.5449331 0.4028044 -0.8108654 -0.4807976 0.3336631 -0.3316966 0.8015626 0.4974686 -0.2625004 0.7715648 0.5794664 0.3280198 -0.8070108 -0.4910568 0.2208262 -0.8784415 -0.4237647 0.7977983 0.5147539 -0.3139209 0.7364429 0.5290989 -0.4215523 0.1152275 0.7241683 0.6799287 -0.3001795 -0.5319513 0.7917829 -0.697892 -0.3579624 0.6203303 0.2559652 0.7512734 0.6083341 0.06405681 -0.7907243 -0.6088117 -0.2212679 -0.6933123 -0.685827 0.5890409 0.5314173 -0.6087912 0.6684681 0.3046969 -0.6784617 -0.8175626 -0.2959927 0.493943 0.0452888 0.9516062 0.3039649 -0.08792048 -0.9493564 -0.3016495 0.7367638 0.06440901 -0.6730756 -0.8885721 -0.2791049 0.3640606 -0.2700816 0.959133 -0.08437895 0.2726741 -0.9613803 0.03737527 0.9238132 0.1584748 -0.348504 -0.9370163 -0.3354916 0.09719026 -0.3201347 0.935258 -0.1510177 0.4010216 -0.9087997 0.1151731 0.9282118 0.3570981 -0.104422 -0.928636 -0.3706194 -0.01663386 -0.4104524 0.9110116 0.03983521 0.3349378 -0.9407523 -0.05293256 0.9075751 0.4155298 0.06035298 -0.4668123 0.5652315 0.6801468 -0.9272903 -0.1782745 -0.3291671 -0.8875586 0.009774446 -0.4605912 -0.3888847 0.4351938 0.8120191 0.3728609 -0.7297142 -0.5731422 0.5017877 -0.4408671 -0.7442078 0.8319099 0.05417788 0.5522598 0.8606762 -0.003499329 0.5091407 -0.7685981 0.09187775 -0.6330999 -0.3204899 0.623732 0.7129128 0.3035809 -0.6464491 -0.6999588 0.8595362 -0.2352421 0.4537166 -0.9361814 -0.04673397 -0.3483968 -0.2687002 0.9367557 0.2242519 -0.05832844 -0.9376092 -0.3427636 0.9475899 -0.1538258 0.2800198 -0.982494 0.0314747 -0.1836162 0.0598278 0.9967693 0.0535888 0.08179008 -0.9957473 -0.04240137 0.973918 0.006246507 0.2268142 -0.06323355 0.9978055 -0.01963752 -0.9378696 0.004706144 -0.3469562 -0.03760689 -0.9910042 -0.1284388 0.9420189 0.03147053 0.3340809 0.6454052 -0.01042217 0.7637693 0.7556369 -0.1470286 -0.6382755 0.7450721 -0.2095717 -0.6332041 0.6294659 -0.02108663 0.7767419 -0.6259244 0.1121118 -0.7717835 -0.6361121 0.1118281 -0.7634501 -0.7359699 0.2489222 0.6295921 -0.7336339 0.2882927 0.6153607 0.7637687 -0.3617896 -0.5345708 0.6426643 0.0442419 0.7648695 -0.6844315 -0.04562526 -0.7276482 -0.6749504 0.4066084 0.6157205 0.5594393 -0.5711485 -0.6006805 0.6221149 -0.1280497 0.7723836 -0.6530932 0.0143789 -0.757141 -0.6974717 0.4692506 0.541606 0.5792061 -0.4888718 -0.6523226 0.5297257 -0.4704017 0.7057712 -0.4632967 0.3782437 -0.8014288 -0.6336342 0.4863968 0.6016029 0.290891 -0.5007278 -0.8152633 0.1830531 -0.7278042 0.6609029 -0.1733595 0.7588891 -0.627721 -0.3776005 0.6790785 0.6295 0.3310289 -0.6146632 -0.7159672 -0.1008497 -0.8587167 0.5024291 0.08817362 0.7151554 -0.6933818 -0.1600637 0.6231116 0.7655793 -0.3513489 0.9340816 0.06360614 -0.9883543 0.132686 0.07450056 -0.9168848 0.3439523 -0.2025318 -0.357772 0.9313339 0.06794309 -0.6190515 -0.7787942 0.101267 -0.3987843 -0.8816004 -0.2524911 0.3481068 -0.9342499 0.07745212 0.1989097 -0.9604384 0.1949183 0.9838353 -0.179068 0.001724839 0.9074507 -0.3820228 -0.1749053 0.6029473 0.7977679 0.004596531 0.2807372 0.8253943 -0.4898071 -0.01437807 0.5071282 0.8617507 0.3823717 -0.4186143 0.8237438 -0.9732215 -0.1740877 -0.1501117 -0.3205817 0.8461936 0.4256571 0.2043467 -0.87106 -0.4466507 0.6600078 0.4908449 -0.5687363 0.3337553 0.01696979 0.942507 -0.9199118 -0.3773445 0.1066466 -0.2986518 0.7465818 0.5944937 0.3853039 -0.9146167 0.1225455 0.7885622 0.1072574 0.6055293 -0.9855935 -0.0571112 0.1591976 -0.360394 0.7454991 0.5606667 -0.1436321 -0.8168444 0.5586907 0.5218372 -0.005828797 0.8530251 0.1390923 -0.4291208 0.8924734 0.2526918 0.001472473 0.9675457 -0.6935735 -0.4679338 -0.5477169 0.1902101 -0.8743369 0.4464922 -0.3000432 0.8383648 -0.4551028 0.5788606 0.5491035 0.6028316 0.8804529 -0.4681085 -0.07534748 0.159828 -0.7567707 0.63384 -0.014952 -0.9207116 -0.3899572 0.3750786 -0.1015665 -0.9214122 -0.6578819 -0.163696 -0.7351157 -0.7909134 -0.5686336 0.2260798 0.6578799 0.1636965 0.7351174 0.7909151 0.5686315 -0.2260789 0.01495385 0.9207109 0.3899589 -0.1598266 0.7567725 -0.6338384 -0.880451 0.4681119 0.07534903 -0.3750797 0.1015663 0.9214118 -0.602543 -0.6672423 0.4378696 0.4354503 -0.8206585 0.3700041 0.05532187 -0.06641757 0.9962571 -0.1585901 -0.8531548 -0.4969669 0.7736522 -0.3672299 -0.5163378 0.9058557 0.1189976 0.4065281 -0.773652 0.367232 0.5163363 -0.4354482 0.8206588 -0.3700054 -0.9058552 -0.1189979 -0.4065292 -0.05531841 0.06642085 -0.9962571 0.6025453 0.6672447 -0.4378626 0.1585899 0.853155 0.4969668 -0.5122261 -0.7634721 0.3933634 -0.2474755 0.07786267 0.9657604 -0.9651309 0.1660303 0.2023771 -0.6655866 -0.447102 -0.5975738 -0.4956138 0.589757 -0.6376156 -0.2372001 0.9142047 0.3285817 0.4956116 -0.5897567 0.6376176 0.237205 -0.9142035 -0.3285813 0.9651314 -0.1660286 -0.2023763 0.2474722 -0.07786279 -0.9657613 0.512226 0.7634717 -0.3933646 0.6655855 0.4471014 0.5975753 -0.6960542 0.6818044 0.2250585 -0.03921794 0.3014138 0.9526866 0.3260242 0.9261046 0.1898389 -0.1894736 0.6923309 -0.6962598 0.7804475 0.3184418 -0.5380488 0.8733072 0.07684421 0.4810712 -0.7804474 -0.3184422 0.5380489 -0.8733069 -0.07684534 -0.4810715 -0.3260251 -0.9261041 -0.1898394 0.03921955 -0.3014147 -0.9526863 0.6960529 -0.6818057 -0.2250584 0.1894724 -0.6923315 0.6962595 0.9771187 0.2042949 -0.05918216 0.2724986 0.6921663 -0.6683192 0.295262 0.8827492 0.365478 0.4770501 -0.3287047 -0.8150929 -0.5138804 0.02032798 -0.857621 -0.62623 0.7690597 -0.1279979 0.5138859 -0.02033376 0.8576176 -0.2724859 -0.6921709 0.6683195 0.6262394 -0.7690538 0.1279872 -0.2952571 -0.8827533 -0.3654721 -0.9771186 -0.2042974 0.05917614 -0.4770451 0.3287021 0.8150969 0.2341945 0.9402459 -0.2471652 0.9576592 0.2660379 0.110058 0.5292614 0.1231264 -0.8394774 -0.4858132 0.3911644 -0.7816497 -0.2073398 -0.6223977 -0.7547393 0.684774 -0.6997295 -0.2036255 0.2073376 0.622393 0.7547438 -0.6847749 0.6997265 0.2036327 -0.5292736 -0.1231286 0.8394694 -0.957658 -0.2660368 -0.1100708 -0.234198 -0.9402434 0.2471717 0.4858083 -0.3911598 0.7816549</float_array>
          <technique_common>
            <accessor source="#Tree_lp_11-mesh-normals-array" count="281" stride="3">
              <param name="X" type="float"/>
              <param name="Y" type="float"/>
              <param name="Z" type="float"/>
            </accessor>
          </technique_common>
        </source>
        <source id="Tree_lp_11-mesh-map-0">
          <float_array id="Tree_lp_11-mesh-map-0-array" count="3000">0.175435 0.1635659 0.227393 0.1635659 0.202202 0.288261 0.175435 0.1635659 0.202202 0.288261 0.150245 0.289632 0.279351 0.1635659 0.25416 0.285937 0.202202 0.288261 0.279351 0.1635659 0.202202 0.288261 0.227393 0.1635659 0.331308 0.1635659 0.306118 0.289632 0.25416 0.285937 0.331308 0.1635659 0.25416 0.285937 0.279351 0.1635659 0.383266 0.1635659 0.358075 0.288261 0.306118 0.289632 0.383266 0.1635659 0.306118 0.289632 0.331308 0.1635659 0.383266 0.1635659 0.435223 0.1635659 0.410033 0.285937 0.383266 0.1635659 0.410033 0.285937 0.358075 0.288261 0.435223 0.1635659 0.487181 0.1635659 0.46199 0.289632 0.435223 0.1635659 0.46199 0.289632 0.410033 0.285937 0.150245 0.289632 0.202202 0.288261 0.172788 0.435765 0.150245 0.289632 0.172788 0.435765 0.1208299 0.437733 0.224745 0.434466 0.172788 0.435765 0.202202 0.288261 0.224745 0.434466 0.202202 0.288261 0.25416 0.285937 0.306118 0.289632 0.276703 0.437733 0.224745 0.434466 0.306118 0.289632 0.224745 0.434466 0.25416 0.285937 0.306118 0.289632 0.358075 0.288261 0.32866 0.435765 0.306118 0.289632 0.32866 0.435765 0.276703 0.437733 0.358075 0.288261 0.410033 0.285937 0.380618 0.434466 0.358075 0.288261 0.380618 0.434466 0.32866 0.435765 0.410033 0.285937 0.46199 0.289632 0.432576 0.437733 0.410033 0.285937 0.432576 0.437733 0.380618 0.434466 0.172788 0.435765 0.144204 0.574706 0.09224677 0.576682 0.172788 0.435765 0.09224677 0.576682 0.1208299 0.437733 0.224745 0.434466 0.196162 0.579905 0.144204 0.574706 0.224745 0.434466 0.144204 0.574706 0.172788 0.435765 0.224745 0.434466 0.276703 0.437733 0.24812 0.576682 0.224745 0.434466 0.24812 0.576682 0.196162 0.579905 0.276703 0.437733 0.32866 0.435765 0.300077 0.574706 0.276703 0.437733 0.300077 0.574706 0.24812 0.576682 0.380618 0.434466 0.352035 0.579905 0.300077 0.574706 0.380618 0.434466 0.300077 0.574706 0.32866 0.435765 0.380618 0.434466 0.432576 0.437733 0.403993 0.576682 0.380618 0.434466 0.403993 0.576682 0.352035 0.579905 0.144204 0.574706 0.11652 0.717314 0.06456285 0.714772 0.144204 0.574706 0.06456285 0.714772 0.09224677 0.576682 0.144204 0.574706 0.196162 0.579905 0.168478 0.716962 0.144204 0.574706 0.168478 0.716962 0.11652 0.717314 0.24812 0.576682 0.220436 0.714772 0.168478 0.716962 0.24812 0.576682 0.168478 0.716962 0.196162 0.579905 0.300077 0.574706 0.272393 0.717314 0.220436 0.714772 0.300077 0.574706 0.220436 0.714772 0.24812 0.576682 0.300077 0.574706 0.352035 0.579905 0.324351 0.716962 0.300077 0.574706 0.324351 0.716962 0.272393 0.717314 0.352035 0.579905 0.403993 0.576682 0.376309 0.714772 0.352035 0.579905 0.376309 0.714772 0.324351 0.716962 0.06456285 0.714772 0.11652 0.717314 0.08749216 0.86143 0.06456285 0.714772 0.08749216 0.86143 0.03553456 0.86116 0.168478 0.716962 0.13945 0.865035 0.08749216 0.86143 0.168478 0.716962 0.08749216 0.86143 0.11652 0.717314 0.220436 0.714772 0.191408 0.86116 0.13945 0.865035 0.220436 0.714772 0.13945 0.865035 0.168478 0.716962 0.272393 0.717314 0.243365 0.86143 0.191408 0.86116 0.272393 0.717314 0.191408 0.86116 0.220436 0.714772 0.324351 0.716962 0.295323 0.865035 0.243365 0.86143 0.324351 0.716962 0.243365 0.86143 0.272393 0.717314 0.324351 0.716962 0.376309 0.714772 0.34728 0.86116 0.324351 0.716962 0.34728 0.86116 0.295323 0.865035 0.03553456 0.86116 0.08749216 0.86143 0.06195759 0.988661 0.03553456 0.86116 0.06195759 0.988661 0.00999999 0.99 0.08749216 0.86143 0.13945 0.865035 0.113915 0.98979 0.08749216 0.86143 0.113915 0.98979 0.06195759 0.988661 0.13945 0.865035 0.191408 0.86116 0.165873 0.99 0.13945 0.865035 0.165873 0.99 0.113915 0.98979 0.191408 0.86116 0.243365 0.86143 0.217831 0.988661 0.191408 0.86116 0.217831 0.988661 0.165873 0.99 0.295323 0.865035 0.269788 0.98979 0.217831 0.988661 0.295323 0.865035 0.217831 0.988661 0.243365 0.86143 0.34728 0.86116 0.321746 0.99 0.269788 0.98979 0.34728 0.86116 0.269788 0.98979 0.295323 0.865035 0.227375 0.163655 0.201632 0.292434 0.149675 0.290455 0.227375 0.163655 0.149675 0.290455 0.175418 0.163655 0.227375 0.163655 0.279333 0.163655 0.25359 0.288954 0.227375 0.163655 0.25359 0.288954 0.201632 0.292434 0.279333 0.163655 0.33129 0.163655 0.305548 0.290455 0.279333 0.163655 0.305548 0.290455 0.25359 0.288954 0.33129 0.163655 0.383248 0.163655 0.357505 0.292434 0.33129 0.163655 0.357505 0.292434 0.305548 0.290455 0.435206 0.163655 0.409463 0.288954 0.357505 0.292434 0.435206 0.163655 0.357505 0.292434 0.383248 0.163655 0.487163 0.163655 0.461421 0.290455 0.409463 0.288954 0.487163 0.163655 0.409463 0.288954 0.435206 0.163655 0.173259 0.433 0.121302 0.437702 0.149675 0.290455 0.173259 0.433 0.149675 0.290455 0.201632 0.292434 0.25359 0.288954 0.225217 0.432648 0.173259 0.433 0.25359 0.288954 0.173259 0.433 0.201632 0.292434 0.225217 0.432648 0.25359 0.288954 0.305548 0.290455 0.225217 0.432648 0.305548 0.290455 0.277175 0.437702 0.277175 0.437702 0.305548 0.290455 0.357505 0.292434 0.277175 0.437702 0.357505 0.292434 0.329132 0.433 0.409463 0.288954 0.38109 0.432648 0.329132 0.433 0.409463 0.288954 0.329132 0.433 0.357505 0.292434 0.461421 0.290455 0.433048 0.437702 0.38109 0.432648 0.461421 0.290455 0.38109 0.432648 0.409463 0.288954 0.173259 0.433 0.1443679 0.572834 0.0924105 0.57602 0.173259 0.433 0.0924105 0.57602 0.121302 0.437702 0.225217 0.432648 0.196326 0.579962 0.1443679 0.572834 0.225217 0.432648 0.1443679 0.572834 0.173259 0.433 0.225217 0.432648 0.277175 0.437702 0.248283 0.57602 0.225217 0.432648 0.248283 0.57602 0.196326 0.579962 0.277175 0.437702 0.329132 0.433 0.300241 0.572834 0.277175 0.437702 0.300241 0.572834 0.248283 0.57602 0.38109 0.432648 0.352199 0.579962 0.300241 0.572834 0.38109 0.432648 0.300241 0.572834 0.329132 0.433 0.38109 0.432648 0.433048 0.437702 0.404156 0.57602 0.38109 0.432648 0.404156 0.57602 0.352199 0.579962 0.06562465 0.709654 0.0924105 0.57602 0.1443679 0.572834 0.06562465 0.709654 0.1443679 0.572834 0.117582 0.713252 0.1443679 0.572834 0.196326 0.579962 0.16954 0.711774 0.1443679 0.572834 0.16954 0.711774 0.117582 0.713252 0.248283 0.57602 0.221498 0.709654 0.16954 0.711774 0.248283 0.57602 0.16954 0.711774 0.196326 0.579962 0.273455 0.713252 0.221498 0.709654 0.248283 0.57602 0.273455 0.713252 0.248283 0.57602 0.300241 0.572834 0.300241 0.572834 0.352199 0.579962 0.325413 0.711774 0.300241 0.572834 0.325413 0.711774 0.273455 0.713252 0.352199 0.579962 0.404156 0.57602 0.37737 0.709654 0.352199 0.579962 0.37737 0.709654 0.325413 0.711774 0.52166 0.295987 0.529215 0.333762 0.472124 0.333762 0.52166 0.295987 0.472124 0.333762 0.464568 0.295987 0.52166 0.295987 0.578752 0.295987 0.586307 0.333762 0.52166 0.295987 0.586307 0.333762 0.529215 0.333762 0.578752 0.295987 0.635843 0.295987 0.643398 0.333762 0.578752 0.295987 0.643398 0.333762 0.586307 0.333762 0.692935 0.295987 0.70049 0.333762 0.643398 0.333762 0.692935 0.295987 0.643398 0.333762 0.635843 0.295987 0.560793 0.489959 0.569502 0.534311 0.512411 0.531188 0.560793 0.489959 0.512411 0.531188 0.503702 0.48994 0.560793 0.489959 0.617885 0.48994 0.626594 0.531188 0.560793 0.489959 0.626594 0.531188 0.569502 0.534311 0.674977 0.489959 0.683685 0.534311 0.626594 0.531188 0.674977 0.489959 0.626594 0.531188 0.617885 0.48994 0.732068 0.48994 0.740777 0.531188 0.683685 0.534311 0.732068 0.48994 0.683685 0.534311 0.674977 0.489959 0.569502 0.534311 0.578416 0.577857 0.521325 0.576322 0.569502 0.534311 0.521325 0.576322 0.512411 0.531188 0.569502 0.534311 0.626594 0.531188 0.635508 0.576322 0.569502 0.534311 0.635508 0.576322 0.578416 0.577857 0.626594 0.531188 0.683685 0.534311 0.692599 0.577857 0.626594 0.531188 0.692599 0.577857 0.635508 0.576322 0.740777 0.531188 0.749691 0.576322 0.692599 0.577857 0.740777 0.531188 0.692599 0.577857 0.683685 0.534311 0.452228 0.586489 0.458819 0.619443 0.412457 0.619443 0.452228 0.586489 0.412457 0.619443 0.405866 0.586489 0.498591 0.586489 0.505182 0.619443 0.458819 0.619443 0.498591 0.586489 0.458819 0.619443 0.452228 0.586489 0.498591 0.586489 0.544953 0.586489 0.551544 0.619443 0.498591 0.586489 0.551544 0.619443 0.505182 0.619443 0.544953 0.586489 0.591316 0.586489 0.597907 0.619443 0.544953 0.586489 0.597907 0.619443 0.551544 0.619443 0.425806 0.68619 0.472169 0.68619 0.48226 0.736613 0.425806 0.68619 0.48226 0.736613 0.435897 0.733184 0.472169 0.68619 0.518531 0.68619 0.528622 0.733184 0.472169 0.68619 0.528622 0.733184 0.48226 0.736613 0.564894 0.68619 0.574985 0.736613 0.528622 0.733184 0.564894 0.68619 0.528622 0.733184 0.518531 0.68619 0.564894 0.68619 0.611256 0.68619 0.621347 0.733184 0.564894 0.68619 0.621347 0.733184 0.574985 0.736613 0.435897 0.733184 0.48226 0.736613 0.490959 0.777583 0.435897 0.733184 0.490959 0.777583 0.444596 0.779163 0.528622 0.733184 0.537321 0.779163 0.490959 0.777583 0.528622 0.733184 0.490959 0.777583 0.48226 0.736613 0.528622 0.733184 0.574985 0.736613 0.583684 0.777583 0.528622 0.733184 0.583684 0.777583 0.537321 0.779163 0.574985 0.736613 0.621347 0.733184 0.630046 0.779163 0.574985 0.736613 0.630046 0.779163 0.583684 0.777583 0.500113 0.824583 0.453751 0.823776 0.444596 0.779163 0.500113 0.824583 0.444596 0.779163 0.490959 0.777583 0.546476 0.823776 0.500113 0.824583 0.490959 0.777583 0.546476 0.823776 0.490959 0.777583 0.537321 0.779163 0.546476 0.823776 0.537321 0.779163 0.583684 0.777583 0.546476 0.823776 0.583684 0.777583 0.592838 0.824583 0.592838 0.824583 0.583684 0.777583 0.630046 0.779163 0.592838 0.824583 0.630046 0.779163 0.639201 0.823776 0.453751 0.823776 0.500113 0.824583 0.510271 0.875009 0.453751 0.823776 0.510271 0.875009 0.463908 0.879329 0.546476 0.823776 0.556633 0.879329 0.510271 0.875009 0.546476 0.823776 0.510271 0.875009 0.500113 0.824583 0.556633 0.879329 0.546476 0.823776 0.592838 0.824583 0.556633 0.879329 0.592838 0.824583 0.602996 0.875009 0.649358 0.879329 0.602996 0.875009 0.592838 0.824583 0.649358 0.879329 0.592838 0.824583 0.639201 0.823776 0.463908 0.879329 0.510271 0.875009 0.520698 0.924894 0.463908 0.879329 0.520698 0.924894 0.474336 0.930396 0.556633 0.879329 0.567061 0.930396 0.520698 0.924894 0.556633 0.879329 0.520698 0.924894 0.510271 0.875009 0.602996 0.875009 0.613423 0.924894 0.567061 0.930396 0.602996 0.875009 0.567061 0.930396 0.556633 0.879329 0.649358 0.879329 0.659786 0.930396 0.613423 0.924894 0.649358 0.879329 0.613423 0.924894 0.602996 0.875009 0.425483 0.684572 0.471845 0.684572 0.482139 0.735481 0.425483 0.684572 0.482139 0.735481 0.435777 0.733512 0.471845 0.684572 0.518207 0.684572 0.528502 0.733512 0.471845 0.684572 0.528502 0.733512 0.482139 0.735481 0.56457 0.684572 0.574864 0.735481 0.528502 0.733512 0.56457 0.684572 0.528502 0.733512 0.518207 0.684572 0.56457 0.684572 0.610932 0.684572 0.621227 0.733512 0.56457 0.684572 0.621227 0.733512 0.574864 0.735481 0.435777 0.733512 0.482139 0.735481 0.491103 0.778269 0.435777 0.733512 0.491103 0.778269 0.444741 0.779574 0.528502 0.733512 0.537466 0.779574 0.491103 0.778269 0.528502 0.733512 0.491103 0.778269 0.482139 0.735481 0.528502 0.733512 0.574864 0.735481 0.583828 0.778269 0.528502 0.733512 0.583828 0.778269 0.537466 0.779574 0.574864 0.735481 0.621227 0.733512 0.630191 0.779574 0.574864 0.735481 0.630191 0.779574 0.583828 0.778269 0.491103 0.778269 0.500215 0.824696 0.453852 0.824765 0.491103 0.778269 0.453852 0.824765 0.444741 0.779574 0.537466 0.779574 0.546577 0.824765 0.500215 0.824696 0.537466 0.779574 0.500215 0.824696 0.491103 0.778269 0.537466 0.779574 0.583828 0.778269 0.59294 0.824696 0.537466 0.779574 0.59294 0.824696 0.546577 0.824765 0.583828 0.778269 0.630191 0.779574 0.639302 0.824765 0.583828 0.778269 0.639302 0.824765 0.59294 0.824696 0.510036 0.874687 0.463673 0.876745 0.453852 0.824765 0.510036 0.874687 0.453852 0.824765 0.500215 0.824696 0.556398 0.876745 0.510036 0.874687 0.500215 0.824696 0.556398 0.876745 0.500215 0.824696 0.546577 0.824765 0.556398 0.876745 0.546577 0.824765 0.59294 0.824696 0.556398 0.876745 0.59294 0.824696 0.602761 0.874687 0.639302 0.824765 0.649123 0.876745 0.602761 0.874687 0.639302 0.824765 0.602761 0.874687 0.59294 0.824696 0.474026 0.929901 0.463673 0.876745 0.510036 0.874687 0.474026 0.929901 0.510036 0.874687 0.520388 0.922535 0.556398 0.876745 0.566751 0.929901 0.520388 0.922535 0.556398 0.876745 0.520388 0.922535 0.510036 0.874687 0.556398 0.876745 0.602761 0.874687 0.613113 0.922535 0.556398 0.876745 0.613113 0.922535 0.566751 0.929901 0.649123 0.876745 0.659476 0.929901 0.613113 0.922535 0.649123 0.876745 0.613113 0.922535 0.602761 0.874687 0.521713 0.02354669 0.573561 0.02354669 0.565551 0.06359946 0.521713 0.02354669 0.565551 0.06359946 0.513703 0.06359946 0.62541 0.02354669 0.617399 0.06359946 0.565551 0.06359946 0.62541 0.02354669 0.565551 0.06359946 0.573561 0.02354669 0.677258 0.02354669 0.669248 0.06359946 0.617399 0.06359946 0.677258 0.02354669 0.617399 0.06359946 0.62541 0.02354669 0.677258 0.02354669 0.729106 0.02354669 0.721096 0.06359946 0.677258 0.02354669 0.721096 0.06359946 0.669248 0.06359946 0.513703 0.06359946 0.565551 0.06359946 0.557452 0.103931 0.513703 0.06359946 0.557452 0.103931 0.505604 0.101224 0.565551 0.06359946 0.617399 0.06359946 0.609301 0.101224 0.565551 0.06359946 0.609301 0.101224 0.557452 0.103931 0.669248 0.06359946 0.661149 0.103931 0.609301 0.101224 0.669248 0.06359946 0.609301 0.101224 0.617399 0.06359946 0.669248 0.06359946 0.721096 0.06359946 0.712997 0.101224 0.669248 0.06359946 0.712997 0.101224 0.661149 0.103931 0.505604 0.101224 0.557452 0.103931 0.549303 0.138767 0.505604 0.101224 0.549303 0.138767 0.497455 0.144623 0.609301 0.101224 0.601152 0.144623 0.549303 0.138767 0.609301 0.101224 0.549303 0.138767 0.557452 0.103931 0.609301 0.101224 0.661149 0.103931 0.6530001 0.138767 0.609301 0.101224 0.6530001 0.138767 0.601152 0.144623 0.712997 0.101224 0.704849 0.144623 0.6530001 0.138767 0.712997 0.101224 0.6530001 0.138767 0.661149 0.103931 0.549303 0.138767 0.540382 0.187948 0.488534 0.189567 0.549303 0.138767 0.488534 0.189567 0.497455 0.144623 0.601152 0.144623 0.59223 0.189567 0.540382 0.187948 0.601152 0.144623 0.540382 0.187948 0.549303 0.138767 0.601152 0.144623 0.6530001 0.138767 0.644079 0.187948 0.601152 0.144623 0.644079 0.187948 0.59223 0.189567 0.644079 0.187948 0.6530001 0.138767 0.704849 0.144623 0.644079 0.187948 0.704849 0.144623 0.695927 0.189567 0.540382 0.187948 0.53109 0.23891 0.479241 0.2308959 0.540382 0.187948 0.479241 0.2308959 0.488534 0.189567 0.53109 0.23891 0.540382 0.187948 0.59223 0.189567 0.53109 0.23891 0.59223 0.189567 0.582938 0.2308959 0.644079 0.187948 0.634786 0.23891 0.582938 0.2308959 0.644079 0.187948 0.582938 0.2308959 0.59223 0.189567 0.644079 0.187948 0.695927 0.189567 0.686635 0.2308959 0.644079 0.187948 0.686635 0.2308959 0.634786 0.23891 0.53109 0.23891 0.520932 0.28951 0.469084 0.283809 0.53109 0.23891 0.469084 0.283809 0.479241 0.2308959 0.572781 0.283809 0.520932 0.28951 0.53109 0.23891 0.572781 0.283809 0.53109 0.23891 0.582938 0.2308959 0.582938 0.2308959 0.634786 0.23891 0.624629 0.28951 0.582938 0.2308959 0.624629 0.28951 0.572781 0.283809 0.634786 0.23891 0.686635 0.2308959 0.676477 0.283809 0.634786 0.23891 0.676477 0.283809 0.624629 0.28951 0.206149 0.00999999 0.258644 0.00999999 0.241328 0.102556 0.206149 0.00999999 0.241328 0.102556 0.187637 0.102556 0.258644 0.00999999 0.310384 0.00999999 0.289964 0.102556 0.258644 0.00999999 0.289964 0.102556 0.241328 0.102556 0.361159 0.00999999 0.342201 0.102556 0.289964 0.102556 0.361159 0.00999999 0.289964 0.102556 0.310384 0.00999999 0.361159 0.00999999 0.41297 0.00999999 0.396386 0.102556 0.361159 0.00999999 0.396386 0.102556 0.342201 0.102556 0.465546 0.00999999 0.445489 0.102556 0.396386 0.102556 0.465546 0.00999999 0.396386 0.102556 0.41297 0.00999999 0.517894 0.00999999 0.499383 0.102556 0.445489 0.102556 0.517894 0.00999999 0.445489 0.102556 0.465546 0.00999999 0.187637 0.102556 0.234079 0.1301349 0.227393 0.1635659 0.187637 0.102556 0.227393 0.1635659 0.175435 0.1635659 0.287171 0.124463 0.279351 0.1635659 0.227393 0.1635659 0.287171 0.124463 0.227393 0.1635659 0.234079 0.1301349 0.342201 0.102556 0.331308 0.1635659 0.279351 0.1635659 0.342201 0.102556 0.279351 0.1635659 0.287171 0.124463 0.342201 0.102556 0.396386 0.102556 0.383266 0.1635659 0.342201 0.102556 0.383266 0.1635659 0.331308 0.1635659 0.396386 0.102556 0.445489 0.102556 0.435223 0.1635659 0.396386 0.102556 0.435223 0.1635659 0.383266 0.1635659 0.499383 0.102556 0.487181 0.1635659 0.435223 0.1635659 0.499383 0.102556 0.435223 0.1635659 0.445489 0.102556 0.187637 0.102556 0.241328 0.102556 0.227375 0.163655 0.187637 0.102556 0.227375 0.163655 0.175418 0.163655 0.289964 0.102556 0.279333 0.163655 0.227375 0.163655 0.289964 0.102556 0.227375 0.163655 0.241328 0.102556 0.33129 0.163655 0.279333 0.163655 0.289964 0.102556 0.33129 0.163655 0.289964 0.102556 0.342201 0.102556 0.342201 0.102556 0.3907 0.126395 0.383248 0.163655 0.342201 0.102556 0.383248 0.163655 0.33129 0.163655 0.442621 0.126578 0.435206 0.163655 0.383248 0.163655 0.442621 0.126578 0.383248 0.163655 0.3907 0.126395 0.499383 0.102556 0.487163 0.163655 0.435206 0.163655 0.499383 0.102556 0.435206 0.163655 0.442621 0.126578 0.465536 0.643919 0.417192 0.642528 0.412457 0.619443 0.465536 0.643919 0.412457 0.619443 0.458819 0.619443 0.511448 0.642381 0.465536 0.643919 0.458819 0.619443 0.511448 0.642381 0.458819 0.619443 0.505182 0.619443 0.554412 0.643808 0.511448 0.642381 0.505182 0.619443 0.554412 0.643808 0.505182 0.619443 0.551544 0.619443 0.554412 0.643808 0.551544 0.619443 0.597907 0.619443 0.554412 0.643808 0.597907 0.619443 0.602642 0.642528 0.425806 0.68619 0.417192 0.642528 0.467727 0.663983 0.425806 0.68619 0.467727 0.663983 0.472169 0.68619 0.511448 0.642381 0.518531 0.68619 0.472169 0.68619 0.511448 0.642381 0.472169 0.68619 0.467727 0.663983 0.511448 0.642381 0.554412 0.643808 0.564894 0.68619 0.511448 0.642381 0.564894 0.68619 0.518531 0.68619 0.602642 0.642528 0.611256 0.68619 0.564894 0.68619 0.602642 0.642528 0.564894 0.68619 0.554412 0.643808 0.474336 0.930396 0.520698 0.924894 0.531276 0.982187 0.474336 0.930396 0.531276 0.982187 0.484913 0.986216 0.520698 0.924894 0.567061 0.930396 0.577638 0.98111 0.520698 0.924894 0.577638 0.98111 0.531276 0.982187 0.613423 0.924894 0.624001 0.985614 0.577638 0.98111 0.613423 0.924894 0.577638 0.98111 0.567061 0.930396 0.613423 0.924894 0.659786 0.930396 0.670363 0.986216 0.613423 0.924894 0.670363 0.986216 0.624001 0.985614 0.417192 0.642528 0.465536 0.643919 0.471845 0.684572 0.417192 0.642528 0.471845 0.684572 0.425483 0.684572 0.511448 0.642381 0.518207 0.684572 0.471845 0.684572 0.511448 0.642381 0.471845 0.684572 0.465536 0.643919 0.511448 0.642381 0.560168 0.662561 0.56457 0.684572 0.511448 0.642381 0.56457 0.684572 0.518207 0.684572 0.602642 0.642528 0.610932 0.684572 0.56457 0.684572 0.602642 0.642528 0.56457 0.684572 0.560168 0.662561 0.520388 0.922535 0.530881 0.979097 0.484518 0.983842 0.520388 0.922535 0.484518 0.983842 0.474026 0.929901 0.530881 0.979097 0.520388 0.922535 0.566751 0.929901 0.530881 0.979097 0.566751 0.929901 0.577243 0.982917 0.613113 0.922535 0.623606 0.984496 0.577243 0.982917 0.613113 0.922535 0.577243 0.982917 0.566751 0.929901 0.623606 0.984496 0.613113 0.922535 0.659476 0.929901 0.623606 0.984496 0.659476 0.929901 0.669968 0.983842 0.170651 0.08143889 0.151488 0.0622766 0.170651 0.0622766 0.170651 0.08143889 0.170651 0.0622766 0.189813 0.0622766 0.151488 0.0622766 0.170651 0.0431143 0.189813 0.0622766 0.151488 0.0622766 0.189813 0.0622766 0.170651 0.0622766 0.16654 0.01740676 0.188605 0.00999999 0.181276 0.02473568 0.16654 0.01740676 0.181276 0.02473568 0.173947 0.03947144 0.188605 0.00999999 0.196012 0.03206467 0.173947 0.03947144 0.188605 0.00999999 0.173947 0.03947144 0.181276 0.02473568 0.617885 0.48994 0.601738 0.408093 0.65883 0.412179 0.617885 0.48994 0.65883 0.412179 0.674977 0.489959 0.544646 0.412179 0.601738 0.408093 0.617885 0.48994 0.544646 0.412179 0.617885 0.48994 0.560793 0.489959 0.732068 0.48994 0.674977 0.489959 0.65883 0.412179 0.732068 0.48994 0.65883 0.412179 0.715921 0.408093 0.544646 0.412179 0.560793 0.489959 0.503702 0.48994 0.544646 0.412179 0.503702 0.48994 0.487555 0.408093 0.586307 0.333762 0.643398 0.333762 0.65883 0.412179 0.586307 0.333762 0.65883 0.412179 0.601738 0.408093 0.586307 0.333762 0.601738 0.408093 0.544646 0.412179 0.586307 0.333762 0.544646 0.412179 0.529215 0.333762 0.70049 0.333762 0.715921 0.408093 0.65883 0.412179 0.70049 0.333762 0.65883 0.412179 0.643398 0.333762 0.472124 0.333762 0.529215 0.333762 0.544646 0.412179 0.472124 0.333762 0.544646 0.412179 0.487555 0.408093 0.08842259 0.846225 0.00999999 0.846225 0.04921138 0.99 0.166845 0.846225 0.08842259 0.846225 0.127634 0.99 0.245268 0.846225 0.166845 0.846225 0.206057 0.99 0.323691 0.846225 0.245268 0.846225 0.28448 0.99 0.402114 0.846225 0.323691 0.846225 0.362902 0.99 0.04921138 0.70245 0.127634 0.70245 0.08842259 0.558675 0.127634 0.70245 0.206057 0.70245 0.166845 0.558675 0.206057 0.70245 0.28448 0.70245 0.245268 0.558675 0.28448 0.70245 0.362902 0.70245 0.323691 0.558675 0.362902 0.70245 0.441325 0.70245 0.402114 0.558675 0.08842259 0.846225 0.04921138 0.70245 0.00999999 0.846225 0.166845 0.846225 0.127634 0.70245 0.08842259 0.846225 0.245268 0.846225 0.206057 0.70245 0.166845 0.846225 0.323691 0.846225 0.28448 0.70245 0.245268 0.846225 0.402114 0.846225 0.362902 0.70245 0.323691 0.846225 0.04921138 0.70245 0.08842259 0.846225 0.127634 0.70245 0.127634 0.70245 0.166845 0.846225 0.206057 0.70245 0.206057 0.70245 0.245268 0.846225 0.28448 0.70245 0.28448 0.70245 0.323691 0.846225 0.362902 0.70245 0.362902 0.70245 0.402114 0.846225 0.441325 0.70245 0.109188 0.373689 0.05959385 0.555533 0.00999999 0.373689 0.208375 0.373689 0.158782 0.555533 0.109188 0.373689 0.307564 0.373689 0.257969 0.555533 0.208375 0.373689 0.406751 0.373689 0.357157 0.555533 0.307564 0.373689 0.505939 0.373689 0.456345 0.555533 0.406751 0.373689 0.05959385 0.191844 0.109188 0.00999999 0.158782 0.191844 0.158782 0.191844 0.208375 0.00999999 0.257969 0.191844 0.257969 0.191844 0.307564 0.00999999 0.357157 0.191844 0.357157 0.191844 0.406751 0.00999999 0.456345 0.191844 0.456345 0.191844 0.505939 0.00999999 0.555533 0.191844 0.109188 0.373689 0.00999999 0.373689 0.05959385 0.191844 0.208375 0.373689 0.109188 0.373689 0.158782 0.191844 0.307564 0.373689 0.208375 0.373689 0.257969 0.191844 0.406751 0.373689 0.307564 0.373689 0.357157 0.191844 0.505939 0.373689 0.406751 0.373689 0.456345 0.191844 0.05959385 0.191844 0.158782 0.191844 0.109188 0.373689 0.158782 0.191844 0.257969 0.191844 0.208375 0.373689 0.257969 0.191844 0.357157 0.191844 0.307564 0.373689 0.357157 0.191844 0.456345 0.191844 0.406751 0.373689 0.456345 0.191844 0.555533 0.191844 0.505939 0.373689 0.464198 0.872173 0.400837 0.872173 0.432518 0.988334 0.527559 0.872173 0.464198 0.872173 0.495878 0.988334 0.59092 0.872173 0.527559 0.872173 0.559239 0.988334 0.654281 0.872173 0.59092 0.872173 0.622601 0.988334 0.717642 0.872173 0.654281 0.872173 0.685962 0.988334 0.432518 0.756011 0.495878 0.756011 0.464198 0.639849 0.495878 0.756011 0.559239 0.756011 0.527559 0.639849 0.559239 0.756011 0.622601 0.756011 0.59092 0.639849 0.622601 0.756011 0.685962 0.756011 0.654281 0.639849 0.685962 0.756011 0.749323 0.756011 0.717642 0.639849 0.464198 0.872173 0.432518 0.756011 0.400837 0.872173 0.527559 0.872173 0.495878 0.756011 0.464198 0.872173 0.59092 0.872173 0.559239 0.756011 0.527559 0.872173 0.654281 0.872173 0.622601 0.756011 0.59092 0.872173 0.717642 0.872173 0.685962 0.756011 0.654281 0.872173 0.432518 0.756011 0.464198 0.872173 0.495878 0.756011 0.495878 0.756011 0.527559 0.872173 0.559239 0.756011 0.559239 0.756011 0.59092 0.872173 0.622601 0.756011 0.622601 0.756011 0.654281 0.872173 0.685962 0.756011 0.685962 0.756011 0.717642 0.872173 0.749323 0.756011 0.74809 0.583761 0.7105 0.583761 0.729295 0.652675 0.785679 0.583761 0.74809 0.583761 0.766884 0.652675 0.823268 0.583761 0.785679 0.583761 0.804473 0.652675 0.860858 0.583761 0.823268 0.583761 0.842063 0.652675 0.898447 0.583761 0.860858 0.583761 0.879652 0.652675 0.729295 0.514847 0.766884 0.514847 0.74809 0.445934 0.766884 0.514847 0.804473 0.514847 0.785679 0.445934 0.804473 0.514847 0.842063 0.514847 0.823268 0.445934 0.842063 0.514847 0.879652 0.514847 0.860858 0.445934 0.879652 0.514847 0.917241 0.514847 0.898447 0.445934 0.74809 0.583761 0.729295 0.514847 0.7105 0.583761 0.785679 0.583761 0.766884 0.514847 0.74809 0.583761 0.823268 0.583761 0.804473 0.514847 0.785679 0.583761 0.860858 0.583761 0.842063 0.514847 0.823268 0.583761 0.898447 0.583761 0.879652 0.514847 0.860858 0.583761 0.729295 0.514847 0.74809 0.583761 0.766884 0.514847 0.766884 0.514847 0.785679 0.583761 0.804473 0.514847 0.804473 0.514847 0.823268 0.583761 0.842063 0.514847 0.842063 0.514847 0.860858 0.583761 0.879652 0.514847 0.879652 0.514847 0.898447 0.583761 0.917241 0.514847 0.588077 0.268129 0.564357 0.355103 0.540636 0.268129 0.635517 0.268129 0.611797 0.355103 0.588077 0.268129 0.682958 0.268129 0.659238 0.355103 0.635517 0.268129 0.730399 0.268129 0.706678 0.355103 0.682958 0.268129 0.777839 0.268129 0.754119 0.355103 0.730399 0.268129 0.564357 0.181155 0.588077 0.09418028 0.611797 0.181155 0.611797 0.181155 0.635517 0.09418028 0.659238 0.181155 0.659238 0.181155 0.682958 0.09418028 0.706678 0.181155 0.706678 0.181155 0.730399 0.09418028 0.754119 0.181155 0.754119 0.181155 0.777839 0.09418028 0.801559 0.181155 0.588077 0.268129 0.540636 0.268129 0.564357 0.181155 0.635517 0.268129 0.588077 0.268129 0.611797 0.181155 0.682958 0.268129 0.635517 0.268129 0.659238 0.181155 0.730399 0.268129 0.682958 0.268129 0.706678 0.181155 0.777839 0.268129 0.730399 0.268129 0.754119 0.181155 0.564357 0.181155 0.611797 0.181155 0.588077 0.268129 0.611797 0.181155 0.659238 0.181155 0.635517 0.268129 0.659238 0.181155 0.706678 0.181155 0.682958 0.268129 0.706678 0.181155 0.754119 0.181155 0.730399 0.268129 0.754119 0.181155 0.801559 0.181155 0.777839 0.268129 0.515525 0.543765 0.465475 0.543765 0.4905 0.635522 0.565574 0.543765 0.515525 0.543765 0.54055 0.635522 0.615624 0.543765 0.565574 0.543765 0.590599 0.635522 0.665673 0.543765 0.615624 0.543765 0.640649 0.635522 0.715723 0.543765 0.665673 0.543765 0.690698 0.635522 0.4905 0.452007 0.54055 0.452007 0.515525 0.36025 0.54055 0.452007 0.590599 0.452007 0.565574 0.36025 0.590599 0.452007 0.640649 0.452007 0.615624 0.36025 0.640649 0.452007 0.690698 0.452007 0.665673 0.36025 0.690698 0.452007 0.740748 0.452007 0.715723 0.36025 0.515525 0.543765 0.4905 0.452007 0.465475 0.543765 0.565574 0.543765 0.54055 0.452007 0.515525 0.543765 0.615624 0.543765 0.590599 0.452007 0.565574 0.543765 0.665673 0.543765 0.640649 0.452007 0.615624 0.543765 0.715723 0.543765 0.690698 0.452007 0.665673 0.543765 0.4905 0.452007 0.515525 0.543765 0.54055 0.452007 0.54055 0.452007 0.565574 0.543765 0.590599 0.452007 0.590599 0.452007 0.615624 0.543765 0.640649 0.452007 0.640649 0.452007 0.665673 0.543765 0.690698 0.452007 0.690698 0.452007 0.715723 0.543765 0.740748 0.452007</float_array>
          <technique_common>
            <accessor source="#Tree_lp_11-mesh-map-0-array" count="1500" stride="2">
              <param name="S" type="float"/>
              <param name="T" type="float"/>
            </accessor>
          </technique_common>
        </source>
        <vertices id="Tree_lp_11-mesh-vertices">
          <input semantic="POSITION" source="#Tree_lp_11-mesh-positions"/>
        </vertices>
        <triangles material="Bark-material" count="380">
          <input semantic="VERTEX" source="#Tree_lp_11-mesh-vertices" offset="0"/>
          <input semantic="NORMAL" source="#Tree_lp_11-mesh-normals" offset="1"/>
          <input semantic="TEXCOORD" source="#Tree_lp_11-mesh-map-0" offset="2" set="0"/>
          <p>6 0 0 7 1 1 13 2 2 6 0 3 13 2 4 12 3 5 8 4 6 14 5 7 13 2 8 8 4 9 13 2 10 7 1 11 9 6 12 15 7 13 14 5 14 9 6 15 14 5 16 8 4 17 10 8 18 16 9 19 15 7 20 10 8 21 15 7 22 9 6 23 10 8 24 11 10 25 17 11 26 10 8 27 17 11 28 16 9 29 11 10 30 6 0 31 12 3 32 11 10 33 12 3 34 17 11 35 12 3 36 13 2 37 19 12 38 12 3 39 19 12 40 18 13 41 20 14 42 19 12 43 13 2 44 20 14 45 13 2 46 14 5 47 15 7 48 21 15 49 20 14 50 15 7 51 20 14 52 14 5 53 15 7 54 16 9 55 22 16 56 15 7 57 22 16 58 21 15 59 16 9 60 17 11 61 23 17 62 16 9 63 23 17 64 22 16 65 17 11 66 12 3 67 18 13 68 17 11 69 18 13 70 23 17 71 19 12 72 25 18 73 24 19 74 19 12 75 24 19 76 18 13 77 20 14 78 26 20 79 25 18 80 20 14 81 25 18 82 19 12 83 20 14 84 21 15 85 27 21 86 20 14 87 27 21 88 26 20 89 21 15 90 22 16 91 28 22 92 21 15 93 28 22 94 27 21 95 23 17 96 29 23 97 28 22 98 23 17 99 28 22 100 22 16 101 23 17 102 18 13 103 24 19 104 23 17 105 24 19 106 29 23 107 25 18 108 31 24 109 30 25 110 25 18 111 30 25 112 24 19 113 25 18 114 26 20 115 32 26 116 25 18 117 32 26 118 31 24 119 27 21 120 33 27 121 32 26 122 27 21 123 32 26 124 26 20 125 28 22 126 34 28 127 33 27 128 28 22 129 33 27 130 27 21 131 28 22 132 29 23 133 35 29 134 28 22 135 35 29 136 34 28 137 29 23 138 24 19 139 30 25 140 29 23 141 30 25 142 35 29 143 30 25 144 31 24 145 37 30 146 30 25 147 37 30 148 36 31 149 32 26 150 38 32 151 37 30 152 32 26 153 37 30 154 31 24 155 33 27 156 39 33 157 38 32 158 33 27 159 38 32 160 32 26 161 34 28 162 40 34 163 39 33 164 34 28 165 39 33 166 33 27 167 35 29 168 41 35 169 40 34 170 35 29 171 40 34 172 34 28 173 35 29 174 30 25 175 36 31 176 35 29 177 36 31 178 41 35 179 36 31 180 37 30 181 43 36 182 36 31 183 43 36 184 42 37 185 37 30 186 38 32 187 44 38 188 37 30 189 44 38 190 43 36 191 38 32 192 39 33 193 45 39 194 38 32 195 45 39 196 44 38 197 39 33 198 40 34 199 46 40 200 39 33 201 46 40 202 45 39 203 41 35 204 47 41 205 46 40 206 41 35 207 46 40 208 40 34 209 36 31 210 42 37 211 47 41 212 36 31 213 47 41 214 41 35 215 49 42 216 55 43 217 54 44 218 49 42 219 54 44 220 48 45 221 49 42 222 50 46 223 56 47 224 49 42 225 56 47 226 55 43 227 50 46 228 51 48 229 57 49 230 50 46 231 57 49 232 56 47 233 51 48 234 52 50 235 58 51 236 51 48 237 58 51 238 57 49 239 53 52 240 59 53 241 58 51 242 53 52 243 58 51 244 52 50 245 48 45 246 54 44 247 59 53 248 48 45 249 59 53 250 53 52 251 61 54 252 60 55 253 54 44 254 61 54 255 54 44 256 55 43 257 56 47 258 62 56 259 61 54 260 56 47 261 61 54 262 55 43 263 62 56 264 56 47 265 57 49 266 62 56 267 57 49 268 63 57 269 63 57 270 57 49 271 58 51 272 63 57 273 58 51 274 64 58 275 59 53 276 65 59 277 64 58 278 59 53 279 64 58 280 58 51 281 54 44 282 60 55 283 65 59 284 54 44 285 65 59 286 59 53 287 61 54 288 67 60 289 66 61 290 61 54 291 66 61 292 60 55 293 62 56 294 68 62 295 67 60 296 62 56 297 67 60 298 61 54 299 62 56 300 63 57 301 69 63 302 62 56 303 69 63 304 68 62 305 63 57 306 64 58 307 70 64 308 63 57 309 70 64 310 69 63 311 65 59 312 71 65 313 70 64 314 65 59 315 70 64 316 64 58 317 65 59 318 60 55 319 66 61 320 65 59 321 66 61 322 71 65 323 72 66 324 66 61 325 67 60 326 72 66 327 67 60 328 73 67 329 67 60 330 68 62 331 74 68 332 67 60 333 74 68 334 73 67 335 69 63 336 75 69 337 74 68 338 69 63 339 74 68 340 68 62 341 76 70 342 75 69 343 69 63 344 76 70 345 69 63 346 70 64 347 70 64 348 71 65 349 77 71 350 70 64 351 77 71 352 76 70 353 71 65 354 66 61 355 72 66 356 71 65 357 72 66 358 77 71 359 81 72 360 80 73 361 78 74 362 81 72 363 78 74 364 79 75 365 81 72 366 83 76 367 82 77 368 81 72 369 82 77 370 80 73 371 83 76 372 85 78 373 84 79 374 83 76 375 84 79 376 82 77 377 79 75 378 78 74 379 84 79 380 79 75 381 84 79 382 85 78 383 91 80 384 95 81 385 94 82 386 91 80 387 94 82 388 90 83 389 91 80 390 92 84 391 96 85 392 91 80 393 96 85 394 95 81 395 93 86 396 97 87 397 96 85 398 93 86 399 96 85 400 92 84 401 90 83 402 94 82 403 97 87 404 90 83 405 97 87 406 93 86 407 95 81 408 99 88 409 98 89 410 95 81 411 98 89 412 94 82 413 95 81 414 96 85 415 100 90 416 95 81 417 100 90 418 99 88 419 96 85 420 97 87 421 101 91 422 96 85 423 101 91 424 100 90 425 94 82 426 98 89 427 101 91 428 94 82 429 101 91 430 97 87 431 105 92 432 104 93 433 102 94 434 105 92 435 102 94 436 103 95 437 107 96 438 106 97 439 104 93 440 107 96 441 104 93 442 105 92 443 107 96 444 109 98 445 108 99 446 107 96 447 108 99 448 106 97 449 109 98 450 103 95 451 102 94 452 109 98 453 102 94 454 108 99 455 110 100 456 111 101 457 115 102 458 110 100 459 115 102 460 114 103 461 111 101 462 112 104 463 116 105 464 111 101 465 116 105 466 115 102 467 113 106 468 117 107 469 116 105 470 113 106 471 116 105 472 112 104 473 113 106 474 110 100 475 114 103 476 113 106 477 114 103 478 117 107 479 114 103 480 115 102 481 119 108 482 114 103 483 119 108 484 118 109 485 116 105 486 120 110 487 119 108 488 116 105 489 119 108 490 115 102 491 116 105 492 117 107 493 121 111 494 116 105 495 121 111 496 120 110 497 117 107 498 114 103 499 118 109 500 117 107 501 118 109 502 121 111 503 123 112 504 122 113 505 118 109 506 123 112 507 118 109 508 119 108 509 124 114 510 123 112 511 119 108 512 124 114 513 119 108 514 120 110 515 124 114 516 120 110 517 121 111 518 124 114 519 121 111 520 125 115 521 125 115 522 121 111 523 118 109 524 125 115 525 118 109 526 122 113 527 122 113 528 123 112 529 127 116 530 122 113 531 127 116 532 126 117 533 124 114 534 128 118 535 127 116 536 124 114 537 127 116 538 123 112 539 128 118 540 124 114 541 125 115 542 128 118 543 125 115 544 129 119 545 126 117 546 129 119 547 125 115 548 126 117 549 125 115 550 122 113 551 126 117 552 127 116 553 131 120 554 126 117 555 131 120 556 130 121 557 128 118 558 132 122 559 131 120 560 128 118 561 131 120 562 127 116 563 129 119 564 133 123 565 132 122 566 129 119 567 132 122 568 128 118 569 126 117 570 130 121 571 133 123 572 126 117 573 133 123 574 129 119 575 134 124 576 135 125 577 139 126 578 134 124 579 139 126 580 138 127 581 135 125 582 136 128 583 140 129 584 135 125 585 140 129 586 139 126 587 137 130 588 141 131 589 140 129 590 137 130 591 140 129 592 136 128 593 137 130 594 134 124 595 138 127 596 137 130 597 138 127 598 141 131 599 138 127 600 139 126 601 143 132 602 138 127 603 143 132 604 142 133 605 140 129 606 144 134 607 143 132 608 140 129 609 143 132 610 139 126 611 140 129 612 141 131 613 145 135 614 140 129 615 145 135 616 144 134 617 141 131 618 138 127 619 142 133 620 141 131 621 142 133 622 145 135 623 143 132 624 147 136 625 146 137 626 143 132 627 146 137 628 142 133 629 144 134 630 148 138 631 147 136 632 144 134 633 147 136 634 143 132 635 144 134 636 145 135 637 149 139 638 144 134 639 149 139 640 148 138 641 145 135 642 142 133 643 146 137 644 145 135 645 146 137 646 149 139 647 151 140 648 150 141 649 146 137 650 151 140 651 146 137 652 147 136 653 152 142 654 151 140 655 147 136 656 152 142 657 147 136 658 148 138 659 152 142 660 148 138 661 149 139 662 152 142 663 149 139 664 153 143 665 146 137 666 150 141 667 153 143 668 146 137 669 153 143 670 149 139 671 154 144 672 150 141 673 151 140 674 154 144 675 151 140 676 155 145 677 152 142 678 156 146 679 155 145 680 152 142 681 155 145 682 151 140 683 152 142 684 153 143 685 157 147 686 152 142 687 157 147 688 156 146 689 150 141 690 154 144 691 157 147 692 150 141 693 157 147 694 153 143 695 159 148 696 161 149 697 160 150 698 159 148 699 160 150 700 158 151 701 163 152 702 162 153 703 160 150 704 163 152 705 160 150 706 161 149 707 165 154 708 164 155 709 162 153 710 165 154 711 162 153 712 163 152 713 165 154 714 159 148 715 158 151 716 165 154 717 158 151 718 164 155 719 158 151 720 160 150 721 167 156 722 158 151 723 167 156 724 166 157 725 160 150 726 162 153 727 168 158 728 160 150 729 168 158 730 167 156 731 164 155 732 169 159 733 168 158 734 164 155 735 168 158 736 162 153 737 164 155 738 158 151 739 166 157 740 164 155 741 166 157 742 169 159 743 166 157 744 167 156 745 171 160 746 166 157 747 171 160 748 170 161 749 168 158 750 172 162 751 171 160 752 168 158 753 171 160 754 167 156 755 168 158 756 169 159 757 173 163 758 168 158 759 173 163 760 172 162 761 166 157 762 170 161 763 173 163 764 166 157 765 173 163 766 169 159 767 171 160 768 175 164 769 174 165 770 171 160 771 174 165 772 170 161 773 172 162 774 176 166 775 175 164 776 172 162 777 175 164 778 171 160 779 172 162 780 173 163 781 177 167 782 172 162 783 177 167 784 176 166 785 177 167 786 173 163 787 170 161 788 177 167 789 170 161 790 174 165 791 175 164 792 179 168 793 178 169 794 175 164 795 178 169 796 174 165 797 179 168 798 175 164 799 176 166 800 179 168 801 176 166 802 180 170 803 177 167 804 181 171 805 180 170 806 177 167 807 180 170 808 176 166 809 177 167 810 174 165 811 178 169 812 177 167 813 178 169 814 181 171 815 179 168 816 183 172 817 182 173 818 179 168 819 182 173 820 178 169 821 184 174 822 183 172 823 179 168 824 184 174 825 179 168 826 180 170 827 180 170 828 181 171 829 185 175 830 180 170 831 185 175 832 184 174 833 181 171 834 178 169 835 182 173 836 181 171 837 182 173 838 185 175 839 0 176 840 1 177 841 261 178 842 0 176 843 261 178 844 260 179 845 1 177 846 2 180 847 262 181 848 1 177 849 262 181 850 261 178 851 3 182 852 264 183 853 262 181 854 3 182 855 262 181 856 2 180 857 3 182 858 4 184 859 265 185 860 3 182 861 265 185 862 264 183 863 5 186 864 266 187 865 265 185 866 5 186 867 265 185 868 4 184 869 0 176 870 260 179 871 266 187 872 0 176 873 266 187 874 5 186 875 260 179 876 267 188 877 7 1 878 260 179 879 7 1 880 6 0 881 268 189 882 8 4 883 7 1 884 268 189 885 7 1 886 267 188 887 264 183 888 9 6 889 8 4 890 264 183 891 8 4 892 268 189 893 264 183 894 265 185 895 10 8 896 264 183 897 10 8 898 9 6 899 265 185 900 266 187 901 11 10 902 265 185 903 11 10 904 10 8 905 260 179 906 6 0 907 11 10 908 260 179 909 11 10 910 266 187 911 260 179 912 261 178 913 49 42 914 260 179 915 49 42 916 48 45 917 262 181 918 50 46 919 49 42 920 262 181 921 49 42 922 261 178 923 51 48 924 50 46 925 262 181 926 51 48 927 262 181 928 264 183 929 264 183 930 268 189 931 52 50 932 264 183 933 52 50 934 51 48 935 267 188 936 53 52 937 52 50 938 267 188 939 52 50 940 268 189 941 260 179 942 48 45 943 53 52 944 260 179 945 53 52 946 267 188 947 270 190 948 269 191 949 102 94 950 270 190 951 102 94 952 104 93 953 271 192 954 270 190 955 104 93 956 271 192 957 104 93 958 106 97 959 263 193 960 271 192 961 106 97 962 263 193 963 106 97 964 108 99 965 263 193 966 108 99 967 102 94 968 263 193 969 102 94 970 269 191 971 110 100 972 269 191 973 272 194 974 110 100 975 272 194 976 111 101 977 271 192 978 112 104 979 111 101 980 271 192 981 111 101 982 272 194 983 271 192 984 263 193 985 113 106 986 271 192 987 113 106 988 112 104 989 269 191 990 110 100 991 113 106 992 269 191 993 113 106 994 263 193 995 130 121 996 131 120 997 276 195 998 130 121 999 276 195 1000 279 196 1001 131 120 1002 132 122 1003 277 197 1004 131 120 1005 277 197 1006 276 195 1007 133 123 1008 280 198 1009 277 197 1010 133 123 1011 277 197 1012 132 122 1013 133 123 1014 130 121 1015 279 196 1016 133 123 1017 279 196 1018 280 198 1019 269 191 1020 270 190 1021 135 125 1022 269 191 1023 135 125 1024 134 124 1025 271 192 1026 136 128 1027 135 125 1028 271 192 1029 135 125 1030 270 190 1031 271 192 1032 272 194 1033 137 130 1034 271 192 1035 137 130 1036 136 128 1037 269 191 1038 134 124 1039 137 130 1040 269 191 1041 137 130 1042 272 194 1043 155 145 1044 274 199 1045 273 200 1046 155 145 1047 273 200 1048 154 144 1049 274 199 1050 155 145 1051 156 146 1052 274 199 1053 156 146 1054 275 201 1055 157 147 1056 278 202 1057 275 201 1058 157 147 1059 275 201 1060 156 146 1061 278 202 1062 157 147 1063 154 144 1064 278 202 1065 154 144 1066 273 200 1067 276 195 1068 277 197 1069 186 203 1070 276 195 1071 186 203 1072 279 196 1073 277 197 1074 280 198 1075 279 196 1076 277 197 1077 279 196 1078 186 203 1079 274 199 1080 275 201 1081 187 204 1082 274 199 1083 187 204 1084 273 200 1085 275 201 1086 278 202 1087 273 200 1088 275 201 1089 273 200 1090 187 204 1091 92 84 1092 88 205 1093 89 206 1094 92 84 1095 89 206 1096 93 86 1097 87 207 1098 88 205 1099 92 84 1100 87 207 1101 92 84 1102 91 80 1103 90 83 1104 93 86 1105 89 206 1106 90 83 1107 89 206 1108 86 208 1109 87 207 1110 91 80 1111 90 83 1112 87 207 1113 90 83 1114 86 208 1115 82 77 1116 84 79 1117 89 206 1118 82 77 1119 89 206 1120 88 205 1121 82 77 1122 88 205 1123 87 207 1124 82 77 1125 87 207 1126 80 73 1127 78 74 1128 86 208 1129 89 206 1130 78 74 1131 89 206 1132 84 79 1133 78 74 1134 80 73 1135 87 207 1136 78 74 1137 87 207 1138 86 208 1139</p>
        </triangles>
        <triangles material="Tree-material" count="120">
          <input semantic="VERTEX" source="#Tree_lp_11-mesh-vertices" offset="0"/>
          <input semantic="NORMAL" source="#Tree_lp_11-mesh-normals" offset="1"/>
          <input semantic="TEXCOORD" source="#Tree_lp_11-mesh-map-0" offset="2" set="0"/>
          <p>188 209 1140 189 210 1141 190 211 1142 191 212 1143 188 209 1144 190 211 1145 192 213 1146 191 212 1147 190 211 1148 193 214 1149 192 213 1150 190 211 1151 189 210 1152 193 214 1153 190 211 1154 194 215 1155 195 216 1156 196 217 1157 195 216 1158 197 218 1159 196 217 1160 197 218 1161 198 219 1162 196 217 1163 198 219 1164 199 220 1165 196 217 1166 199 220 1167 194 215 1168 196 217 1169 188 209 1170 194 215 1171 189 210 1172 191 212 1173 195 216 1174 188 209 1175 192 213 1176 197 218 1177 191 212 1178 193 214 1179 198 219 1180 192 213 1181 189 210 1182 199 220 1183 193 214 1184 194 215 1185 188 209 1186 195 216 1187 195 216 1188 191 212 1189 197 218 1190 197 218 1191 192 213 1192 198 219 1193 198 219 1194 193 214 1195 199 220 1196 199 220 1197 189 210 1198 194 215 1199 200 221 1200 201 222 1201 202 223 1202 203 224 1203 201 222 1204 200 221 1205 204 225 1206 201 222 1207 203 224 1208 205 226 1209 201 222 1210 204 225 1211 202 223 1212 201 222 1213 205 226 1214 206 227 1215 207 228 1216 208 229 1217 208 229 1218 207 228 1219 209 230 1220 209 230 1221 207 228 1222 210 231 1223 210 231 1224 207 228 1225 211 232 1226 211 232 1227 207 228 1228 206 227 1229 200 221 1230 202 223 1231 206 227 1232 203 224 1233 200 221 1234 208 229 1235 204 225 1236 203 224 1237 209 230 1238 205 226 1239 204 225 1240 210 231 1241 202 223 1242 205 226 1243 211 232 1244 206 227 1245 208 229 1246 200 221 1247 208 229 1248 209 230 1249 203 224 1250 209 230 1251 210 231 1252 204 225 1253 210 231 1254 211 232 1255 205 226 1256 211 232 1257 206 227 1258 202 223 1259 212 233 1260 213 234 1261 214 235 1262 215 236 1263 212 233 1264 214 235 1265 216 237 1266 215 236 1267 214 235 1268 217 238 1269 216 237 1270 214 235 1271 213 234 1272 217 238 1273 214 235 1274 218 239 1275 219 240 1276 220 241 1277 219 240 1278 221 242 1279 220 241 1280 221 242 1281 222 243 1282 220 241 1283 222 243 1284 223 244 1285 220 241 1286 223 244 1287 218 239 1288 220 241 1289 212 233 1290 218 239 1291 213 234 1292 215 236 1293 219 240 1294 212 233 1295 216 237 1296 221 242 1297 215 236 1298 217 238 1299 222 243 1300 216 237 1301 213 234 1302 223 244 1303 217 238 1304 218 239 1305 212 233 1306 219 240 1307 219 240 1308 215 236 1309 221 242 1310 221 242 1311 216 237 1312 222 243 1313 222 243 1314 217 238 1315 223 244 1316 223 244 1317 213 234 1318 218 239 1319 224 245 1320 225 246 1321 226 247 1322 227 248 1323 224 245 1324 226 247 1325 228 249 1326 227 248 1327 226 247 1328 229 250 1329 228 249 1330 226 247 1331 225 246 1332 229 250 1333 226 247 1334 230 251 1335 231 252 1336 232 253 1337 231 252 1338 233 254 1339 232 253 1340 233 254 1341 234 255 1342 232 253 1343 234 255 1344 235 256 1345 232 253 1346 235 256 1347 230 251 1348 232 253 1349 224 245 1350 230 251 1351 225 246 1352 227 248 1353 231 252 1354 224 245 1355 228 249 1356 233 254 1357 227 248 1358 229 250 1359 234 255 1360 228 249 1361 225 246 1362 235 256 1363 229 250 1364 230 251 1365 224 245 1366 231 252 1367 231 252 1368 227 248 1369 233 254 1370 233 254 1371 228 249 1372 234 255 1373 234 255 1374 229 250 1375 235 256 1376 235 256 1377 225 246 1378 230 251 1379 236 257 1380 237 258 1381 238 259 1382 239 260 1383 237 258 1384 236 257 1385 240 261 1386 237 258 1387 239 260 1388 241 262 1389 237 258 1390 240 261 1391 238 259 1392 237 258 1393 241 262 1394 242 263 1395 243 264 1396 244 265 1397 244 265 1398 243 264 1399 245 266 1400 245 266 1401 243 264 1402 246 267 1403 246 267 1404 243 264 1405 247 268 1406 247 268 1407 243 264 1408 242 263 1409 236 257 1410 238 259 1411 242 263 1412 239 260 1413 236 257 1414 244 265 1415 240 261 1416 239 260 1417 245 266 1418 241 262 1419 240 261 1420 246 267 1421 238 259 1422 241 262 1423 247 268 1424 242 263 1425 244 265 1426 236 257 1427 244 265 1428 245 266 1429 239 260 1430 245 266 1431 246 267 1432 240 261 1433 246 267 1434 247 268 1435 241 262 1436 247 268 1437 242 263 1438 238 259 1439 248 269 1440 249 270 1441 250 271 1442 251 272 1443 248 269 1444 250 271 1445 252 273 1446 251 272 1447 250 271 1448 253 274 1449 252 273 1450 250 271 1451 249 270 1452 253 274 1453 250 271 1454 254 275 1455 255 276 1456 256 277 1457 255 276 1458 257 278 1459 256 277 1460 257 278 1461 258 279 1462 256 277 1463 258 279 1464 259 280 1465 256 277 1466 259 280 1467 254 275 1468 256 277 1469 248 269 1470 254 275 1471 249 270 1472 251 272 1473 255 276 1474 248 269 1475 252 273 1476 257 278 1477 251 272 1478 253 274 1479 258 279 1480 252 273 1481 249 270 1482 259 280 1483 253 274 1484 254 275 1485 248 269 1486 255 276 1487 255 276 1488 251 272 1489 257 278 1490 257 278 1491 252 273 1492 258 279 1493 258 279 1494 253 274 1495 259 280 1496 259 280 1497 249 270 1498 254 275 1499</p>
        </triangles>
      </mesh>
    </geometry>
  </library_geometries>
  <library_visual_scenes>
    <visual_scene id="Scene" name="Scene">
      <node id="Tree_lp_11" name="Tree_lp_11" type="NODE">
        <matrix sid="transform">0.1352119 0 0 0 0 0.1352115 0 0 0 0 0.1352115 0.7150308 0 0 0 1</matrix>
        <instance_geometry url="#Tree_lp_11-mesh" name="Tree_lp_11">
          <bind_material>
            <technique_common>
              <instance_material symbol="Bark-material" target="#Bark-material">
                <bind_vertex_input semantic="Geometry-mesh022-DiffuseUVLayer" input_semantic="TEXCOORD" input_set="0"/>
              </instance_material>
              <instance_material symbol="Tree-material" target="#Tree-material">
                <bind_vertex_input semantic="Geometry-mesh022-DiffuseUVLayer" input_semantic="TEXCOORD" input_set="0"/>
              </instance_material>
            </technique_common>
          </bind_material>
        </instance_geometry>
      </node>
    </visual_scene>
  </library_visual_scenes>
  <scene>
    <instance_visual_scene url="#Scene"/>
  </scene>
</COLLADA>