<?xml version="1.0" encoding="UTF-8"?>
<COLLADA xmlns="http://www.collada.org/2005/11/COLLADASchema" version="1.4.1">
<!--
# File generated by ImageToStl.com - Free Image and 3D model conversion tools
-->
  <asset>
    <contributor>
      <author>ImageToStl.com</author>
      <authoring_tool>ImageToStl.com</authoring_tool>
    </contributor>
    <created>2026-05-18T09:56:17</created>
    <modified>2026-05-18T09:56:17</modified>
    <up_axis>Y_UP</up_axis>
  </asset>
  <library_effects>
    <effect id="effect_0">
        <profile_COMMON>
          <technique sid="common">
            <phong>
              <emission>
                <color>0 0 0 1</color>
              </emission>
              <diffuse>
                <color>1 0 0 1</color>
              </diffuse>
              <specular>
                <color>0 0 0 1</color>
              </specular>
              <shininess>
                <float>0</float>
              </shininess>
              <transparency>
                <float>0</float>
              </transparency>
            </phong>
          </technique>
        </profile_COMMON>
    </effect>
    <effect id="effect_1">
        <profile_COMMON>
          <technique sid="common">
            <phong>
              <emission>
                <color>0 0 0 1</color>
              </emission>
              <diffuse>
                <color>1 0 0 1</color>
              </diffuse>
              <specular>
                <color>0 0 0 1</color>
              </specular>
              <shininess>
                <float>0</float>
              </shininess>
              <transparency>
                <float>0</float>
              </transparency>
            </phong>
          </technique>
        </profile_COMMON>
    </effect>
    <effect id="effect_2">
        <profile_COMMON>
          <technique sid="common">
            <phong>
              <emission>
                <color>0 0 0 1</color>
              </emission>
              <diffuse>
                <color>1 0 0 1</color>
              </diffuse>
              <specular>
                <color>0 0 0 1</color>
              </specular>
              <shininess>
                <float>0</float>
              </shininess>
              <transparency>
                <float>0</float>
              </transparency>
            </phong>
          </technique>
        </profile_COMMON>
    </effect>
  </library_effects>
  <library_materials>
    <material id="mat_0">
      <instance_effect url="#effect_0"/>
    </material>
    <material id="mat_1">
      <instance_effect url="#effect_1"/>
    </material>
    <material id="mat_2">
      <instance_effect url="#effect_2"/>
    </material>
  </library_materials>
  <library_geometries>
    <geometry id="geometry_903bb850_2581_4738_af73_330657e30688">
      <mesh>
        <source id="pos_0">
          <float_array id="pos_0-array" count="792">1.52501822 5.48325348 -2.5041182 1.2293452 6.58555889 -1.52732646 5.02023268 8.8793211 -4.58167124 4.4284296 9.56471252 -3.46831846 1.90222132 6.74333572 -0.15293729 5.07560349 9.54492569 -2.2290504 2.95316482 5.64411163 0.17820542 6.4094286 9.08791351 -2.04846287 3.24883413 4.54180527 -0.79857624 6.9379549 8.28997898 -3.11786056 2.57596159 4.38404799 -2.17296314 6.18349075 8.11910057 -4.28259087 1.52501822 5.48325348 -2.5041182 5.02023268 8.8793211 -4.58167124 6.87762308 14.48633766 -5.98016977 6.16133881 15.08203697 -5.00961304 6.70098925 15.34144402 -3.84759545 8.00324345 15.16704082 -3.59297395 8.65735531 14.40263367 -4.48610544 8.0766573 14.03182602 -5.59699726 6.87762308 14.48633766 -5.98016977 8.39112473 19.43110275 -8.11941051 8.93562126 18.82914543 -8.93628025 8.95087433 20.11271667 -7.28505993 10.06469154 19.67355347 -7.07261086 10.55540657 18.91375923 -7.78538704 10.13719368 18.64739609 -8.89362335 8.93562126 18.82914543 -8.93628025 9.5812254 24.09444237 -11.15472984 10.3296423 23.54616928 -11.71897411 9.94639301 24.7258606 -10.32927513 11.01201153 24.77818871 -10.16250515 11.74878216 24.4303093 -10.88034058 11.38522243 23.77117538 -11.68453503 10.3296423 23.54616928 -11.71897411 8.73057556 28.03857231 -15.86683273 8.12076664 28.20117569 -15.16025734 8.32656956 28.80817413 -14.38189697 9.32664204 28.90391541 -14.29745579 9.92990017 28.76495552 -15.0146513 9.63655663 28.4756031 -15.93483829 8.73057556 28.03857231 -15.86683273 7.75191784 33.63877106 -16.06563759 7.23325586 33.7734642 -15.44677925 7.48179197 34.01203918 -14.70764446 8.29263401 34.00874329 -14.53990555 8.80193424 33.74555588 -15.12434578 8.56128693 33.6153183 -15.89251041 7.75191784 33.63877106 -16.06563759 -3.01869035 4.92972565 0.30621025 -6.86785555 9.02083778 2.25445819 -2.57758975 5.94739676 -0.70492572 -6.08337069 9.53601074 1.18018055 -2.46996975 4.82181549 1.73772919 -6.17705584 8.87505722 3.48452067 -1.38305795 5.87650299 2.09030533 -4.96083164 9.4874239 3.74677777 -0.94195533 6.89417458 1.07917511 -4.26026487 10.17618752 2.71249771 -1.49068367 7.00208473 -0.35234174 -4.80350065 10.01678276 1.41209769 -2.57758975 5.94739676 -0.70492572 -6.08337069 9.53601074 1.18018055 -7.91021729 15.433424 2.7277112 -7.15460968 15.73217678 1.60536218 -7.40058708 15.34776306 3.92874146 -6.06528902 15.5843401 4.21177435 -5.30935192 15.41613865 3.06280041 -5.81896257 15.46683788 1.85977995 -7.15460968 15.73217678 1.60536218 -6.65926266 21.21856689 2.97638273 -5.98338699 21.38679123 2.06328893 -6.36896229 21.55152702 4.13355494 -5.16070318 21.34376526 4.25512886 -4.48736572 21.19511795 3.33676338 -4.77196836 21.57109833 2.19139409 -5.98338699 21.38679123 2.06328893 -6.76372385 26.95403862 2.06226182 -7.56485653 26.75112343 2.80616355 -7.19689798 26.68135643 3.86309958 -6.16523409 26.93155861 4.08721638 -5.49021053 27.46704292 3.38426518 -5.80638456 27.400177 2.31050706 -6.76372385 26.95403862 2.06226182 -6.76502228 14.81326866 1.9634794 -8.4248476 15.73105049 1.7528131 -6.08399105 16.23973274 2.26701689 -7.75478601 17.00196648 2.04096246 -7.12123632 14.6511116 3.52475452 -8.7404604 15.58189964 3.17598271 -6.4402051 16.07757568 3.82829237 -8.07039738 16.8528347 3.46415162 -6.08399105 16.23973274 2.26701689 -7.75478601 17.00196648 2.04096246 -13.76305676 21.21411133 0.69098914 -15.70450115 22.34884071 0.48741227 -13.06371117 22.08371544 1.10243762 -14.92059708 23.0847187 0.85962683 -14.01866627 20.89200592 1.80687296 -15.69667149 21.89921188 1.53261542 -13.32083225 21.76258087 2.21831369 -15.1608963 22.81707382 1.93907917 -13.06371117 22.08371544 1.10243762 -14.92059708 23.0847187 0.85962683 -17.35973167 24.403368 2.21104574 -16.40144348 24.81074715 2.46617126 -17.22131729 23.66691208 2.97758436 -16.33969688 24.16944504 3.32308102 -16.40144348 24.81074715 2.46617126 -6.15788937 9.67555046 2.9614985 -4.92900848 11.16676426 3.51120758 -5.57523298 9.89402676 1.32995319 -4.42315817 11.32894135 2.02640796 -4.84402514 8.57117081 3.28282738 -3.71171856 10.211092 3.81391191 -4.26136923 8.7896471 1.6512785 -3.20586753 10.37324905 2.32913136 -5.57523298 9.89402676 1.32995319 -4.42315817 11.32894135 2.02640796 -1.25973761 13.25424099 2.86209559 -1.73307192 13.31059933 3.90269423 0.60493386 13.8834486 4.27140856 0.05789698 13.97505951 5.21595669 -1.41112864 12.23660755 4.13287592 0.25916988 12.90732861 5.35483789 -0.93779427 12.18025017 3.09227824 1.09939098 12.98502541 4.65638351 -1.25973761 13.25424099 2.86209559 0.60493386 13.8834486 4.27140856 1.88700366 14.81861687 5.51278925 1.23072696 14.89774799 6.29859161 1.84778523 14.3217783 6.88337946 2.39093614 14.09679031 6.04145098 1.88700366 14.81861687 5.51278925 2.35791159 16.77337456 6.33667421 2.75218892 16.45031929 5.50904846 3.16768765 16.51404572 6.80764008 3.59403992 16.28302765 5.96522713 2.75218892 16.45031929 5.50904846 3.17766881 19.08120728 4.84607983 2.83102894 18.97395515 5.7631073 3.70485783 19.25373268 6.12469006 4.0255475 18.84061813 5.28857565 3.17766881 19.08120728 4.84607983 2.99791455 21.71141434 4.77665854 2.72400975 21.35190773 5.580369 3.5084362 21.65598679 5.95768785 3.76685596 21.34454155 5.12922859 2.99791455 21.71141434 4.77665854 -4.18094015 13.9258728 4.1529932 -4.55510044 13.02446461 4.75634813 -4.38798237 15.19870663 6.3582058 -4.74679327 14.28582668 6.81816387 -3.49517965 12.81676483 5.1436286 -3.71735835 14.02692223 7.0346446 -3.12101936 13.71817207 4.54027462 -3.40769625 15.03573704 6.78961658 -4.18094015 13.9258728 4.1529932 -4.38798237 15.19870663 6.3582058 -5.00790739 15.71486855 8.33676338 -5.31582451 14.78594112 8.62933159 -4.5225606 14.71489239 9.26884937 -4.14117146 15.56821632 8.85691738 -5.00790739 15.71486855 8.33676338 -6.67922497 16.39468002 10.0229845 -6.09864283 16.80223274 9.36224461 -5.96443224 16.43392563 10.67667007 -5.38125324 16.83380318 10.01350784 -6.09864283 16.80223274 9.36224461 -6.73887777 18.95302391 10.09312344 -6.14666796 19.26324844 9.41371822 -6.1076932 19.17874908 10.77074337 -5.46001577 19.24456596 10.07453632 -6.14666796 19.26324844 9.41371822 -7.23436069 21.6697464 9.73117256 -7.56756973 21.0193367 10.37255001 -7.16804028 21.59784508 11.04418278 -6.52408361 21.40694809 10.34105873 -7.23436069 21.6697464 9.73117256 10.79153919 22.84284973 -9.64886284 10.90098095 21.44900322 -9.51104832 11.1399231 22.57346153 -11.79570198 11.22750378 21.34609222 -11.62838936 9.52664948 21.31527519 -9.77090263 10.02116299 21.22825813 -11.89886379 9.41720772 22.70931816 -9.90871716 9.93358135 22.45562744 -12.06619644 10.79153919 22.84284973 -9.64886284 11.1399231 22.57346153 -11.79570198 11.65862274 22.21666527 -13.85672283 11.73292828 21.08387184 -13.64006901 10.58558178 21.01836967 -13.76212692 10.58329582 22.06510925 -14.25202656 11.65862274 22.21666527 -13.85672283 12.16904736 21.18445969 -15.85789871 11.9669857 20.28171349 -15.24731445 11.12118244 20.06911087 -15.93136883 11.06881618 21.1745739 -15.99179745 12.16904736 21.18445969 -15.85789871 13.29583168 19.63886261 -17.46359253 13.35941887 20.64974976 -17.56665802 12.60416031 19.59719467 -18.20960808 12.54896355 20.61350822 -18.18191338 13.35941887 20.64974976 -17.56665802 15.31607533 19.96329308 -19.17998886 14.77072716 20.80964088 -18.90366173 14.54364681 20.03907013 -19.87840462 14.79648399 21.05131531 -19.91910362 14.77072716 20.80964088 -18.90366173 17.945858 20.6325016 -19.34832764 17.37703896 21.37303162 -19.22506905 17.52770233 20.69510078 -20.18984985 17.54687119 21.63369751 -20.11387825 17.37703896 21.37303162 -19.22506905 -1.01699853 -1.37177444 -2.66546082 -2.96661496 -1.29208386 -0.47684413 -0.70357096 4.64940596 -2.21600747 -2.44444537 4.26551723 -0.37676507 -1.75638282 -1.2820369 2.16024971 -1.38411224 4.24348068 1.62180638 1.05785465 -1.34088969 2.77253842 0.93658298 4.55267811 2.10718584 2.76827478 -1.41687298 0.44496316 2.55547667 3.94817996 0.20142561 1.94533908 -1.43926144 -2.39264154 1.65548778 4.01446152 -1.87812352 -1.01699853 -1.37177444 -2.66546082 -0.70357096 4.64940596 -2.21600747 -0.09356547 6.77260017 -1.01558006 0.6287564 6.73000145 0.88835263 0.6287564 6.73000145 0.88835263 -0.09356547 6.77260017 -1.01558006 -4.36852455 12.3088007 3.99484825 -3.71648598 12.38950062 2.3725245 -2.95056796 11.4561348 4.11915541 -2.29172707 11.39652157 2.69001603 -3.71648598 12.38950062 2.3725245 -2.80275249 13.1484623 3.66121268 3.37211347 24.53380013 5.25787735 3.06570745 24.23282051 5.92664003 3.76013112 24.05316353 6.17364502 4.06987047 24.38263321 5.50860262 3.37211347 24.53380013 5.25787735 -2.80275249 13.1484623 3.66121268 -8.39552593 23.78648758 10.51170349 -8.03752804 24.21169662 9.92135334 -7.87998343 24.17254639 10.97332859 -7.46648073 24.41286469 10.37817097 -8.03752804 24.21169662 9.92135334 3.06570745 24.23282051 5.92664003 3.76013112 24.05316353 6.17364502 3.37211347 24.53380013 5.25787735 3.59729576 24.56093216 5.75058794 4.06987047 24.38263321 5.50860262 -8.39552593 23.78648758 10.51170349 -7.87998343 24.17254639 10.97332859 -8.03752804 24.21169662 9.92135334 -7.96014166 24.19677353 10.44745636 -7.46648073 24.41286469 10.37817097 -11.83942509 17.88731003 2.11701179 -11.1026535 18.94331551 2.4288249 -11.43863487 17.99018097 0.85844272 -10.44794178 18.75526428 1.29250824 -10.44794178 18.75526428 1.29250824</float_array>
          <technique_common>
            <accessor source="#pos_0-array" count="792" stride="3">
              <param name="X" type="float"/>
              <param name="Y" type="float"/>
              <param name="Z" type="float"/>
            </accessor>
          </technique_common>
        </source>
        <source id="norm_0">
          <float_array id="norm_0-array" count="576">-0.70717 0.3531 -0.61254 -0.57643 0.79449 0.19102 0.15751 0.41984 0.89383 0.72304 -0.33927 0.60176 0.62401 -0.74996 -0.21943 -0.12488 -0.39375 -0.9107 -0.83444 0.14371 -0.53203 -0.87976 0.33961 0.33274 -0.04282 0.25654 0.96558 0.86084 -0.09885 0.49922 0.8124 -0.33531 -0.47703 0.0893 -0.24329 -0.96582 -0.80703 -0.00842 -0.59044 -0.79608 0.55281 0.24628 -0.07382 0.60564 0.79232 0.82699 0.0538 0.55962 0.80865 -0.53529 -0.24403 0.03366 -0.59078 -0.80612 -0.86123 -0.10398 -0.49745 -0.87869 0.39689 0.26527 0.03833 0.51225 0.858 0.86322 0.09177 0.49644 0.90371 -0.34086 -0.2591 -0.03989 -0.47044 -0.88153 -0.71404 -0.59493 -0.36906 -0.92044 0.02219 0.39024 -0.14676 0.66967 0.72802 0.66933 0.64028 0.37684 0.9169 -0.01935 -0.39866 0.15885 -0.62871 -0.76122 -0.76525 -0.15592 -0.62456 -0.9288 -0.1301 0.34703 -0.0886 0.04788 0.9949 0.76943 0.18488 0.61138 0.91525 0.19437 -0.35289 -0.05332 -0.04474 -0.99759 -0.68682 -0.34037 -0.6422 -0.66414 -0.72027 0.20029 0.04633 -0.35932 0.93207 0.66604 0.36027 0.65316 0.60982 0.77285 -0.17551 -0.08701 0.39534 -0.9144 -0.81484 -0.09018 -0.57259 -0.86483 -0.19523 0.46254 -0.18882 -0.10273 0.97662 0.83764 0.11093 0.53487 0.89523 0.19953 -0.39842 0.1438 0.09247 -0.98529 -0.83645 0.20276 -0.50917 -0.90817 0.13797 0.39521 -0.20774 0.00226 0.97818 0.81896 -0.13282 0.55828 0.91034 -0.13489 -0.39131 0.19102 0.02054 -0.98138 -0.66469 -0.0933 -0.74126 -0.94867 -0.14667 0.28019 -0.09803 0.01227 0.99512 0.67721 0.10276 0.72857 0.96933 0.15644 -0.18952 0.09937 0.03797 -0.99432 0.18867 0.1174 -0.97501 -0.4557 -0.86871 -0.19419 -0.25526 -0.0831 0.96329 0.38759 0.90362 0.18229 0.24329 0.24805 -0.93771 -0.44737 -0.82672 -0.3412 -0.271 -0.22507 0.93591 0.41191 0.8461 0.3383 -0.14466 0.56496 -0.81234 -0.83978 -0.50102 -0.2092 0.21735 -0.49852 0.83917 0.84375 0.44612 0.29844 -0.72839 0.66341 -0.1713 -0.30946 -0.09281 0.94638 0.77584 -0.59944 0.19681 0.35676 0.15644 -0.92102 -0.21305 0.96558 -0.1492 -0.59038 -0.00397 0.80712 0.24992 -0.95404 0.16535 0.60616 0.01126 -0.79528 -0.36039 0.88507 -0.29456 -0.67791 -0.03229 0.73443 0.38908 -0.84167 0.37446 0.69704 0.07822 -0.71276 -0.72692 0.44743 -0.52095 -0.41432 0.27937 0.86621 0.75005 -0.43437 0.49873 0.41929 -0.26106 -0.8695 -0.89703 0.03403 -0.44063 -0.40788 0.29533 0.86395 0.91632 -0.08197 0.39195 0.37931 -0.2833 -0.88083 -0.93005 -0.07306 -0.36012 -0.39088 0.03198 0.91989 0.94522 0.11704 0.3047 0.46452 0.00839 -0.88553 -0.94391 0.23981 -0.22706 -0.33192 -0.81811 0.46962 0.94198 -0.22315 0.25077 0.3264 0.83316 -0.44642 -0.92123 0.19147 -0.3386 -0.27689 -0.94189 0.19025 0.90506 -0.18476 0.38307 0.23185 0.95871 -0.16468 -0.70772 0.01215 -0.70638 -0.4474 -0.76058 0.47047 0.71129 0.02124 0.70257 0.4022 0.80038 -0.44456 -0.75393 0.00043 -0.65697 -0.72011 -0.06128 0.69115 0.73141 0.0148 0.68178 0.67119 0.0286 -0.74071 -0.73357 -0.24808 -0.63271 -0.62346 -0.35218 0.69805 0.70135 0.23118 0.67431 0.64684 0.37962 -0.66143 0.98468 0.09195 0.14826 0.08524 -0.99454 0.06049 -0.9704 -0.09799 -0.22074 -0.07089 0.98856 -0.13318 0.96887 0.10001 0.22651 0.06397 -0.9874 0.14475 -0.95825 -0.10465 -0.26612 -0.05292 0.98019 -0.19086 0.97525 0.10154 0.19639 0.00937 -0.91522 0.40287 -0.97534 -0.09531 -0.1991 0.0397 0.89212 -0.45003 0.86657 0.13163 0.4814 0.05332 -0.97037 0.23572 -0.84255 -0.06909 -0.53413 0.09668 0.97794 -0.18522 0.64351 0.03748 0.76452 0.03476 -0.98868 -0.14591 -0.6101 -0.01154 -0.79223 -0.11783 0.98831 0.09671 0.12183 -0.23621 0.96402 0.19483 -0.96622 -0.16865 -0.10053 -0.01486 -0.99481 -0.18674 0.95676 0.223 -0.74218 0.08823 -0.66436 -0.90622 0.07767 0.4156 -0.2093 0.10544 0.97214 0.80435 0.08298 0.58837 0.9574 0.07712 -0.27827 0.09305 0.06931 -0.99326 -0.30174 0.53346 -0.79019 0.00598 0.99979 0.02011 0.45436 0.48317 0.74837 0.72637 -0.16117 0.66814 0.4358 -0.87362 -0.21647 0.02689 -0.3899 -0.92047 -0.6928 -0.19056 -0.69552 -0.4395 -0.86999 0.22358 -0.12125 -0.20008 0.97226 0.2787 0.49879 0.82067 0.14649 0.98865 -0.03345 -0.2768 0.53197 -0.80023 -0.80172 0.519 -0.2964 -0.16782 -0.13675 0.97629 0.64492 -0.69115 0.32615 0.27635 0.09058 -0.95679 -0.29344 0.93805 -0.1843 -0.14551 0.27024 0.95175 0.43751 -0.86718 0.23786 0.20283 -0.022 -0.97897 -0.95355 0.16895 -0.2494 -0.41368 -0.06012 0.90844 0.93023 -0.13538 0.34107 0.4423 0.06757 -0.89431 -0.92083 0.14231 -0.36302 -0.44279 -0.64568 0.62212 0.90216 0.03751 0.42979 0.21647 0.76638 -0.60482 -0.77136 -0.20042 -0.60402 -0.56127 -0.20823 0.80102 0.74813 0.22684 0.62358 0.57189 0.18915 -0.79824 0.07614 0.89575 0.438 0.02951 0.8901 0.45479 0.90936 -0.05222 -0.41273 -0.665 0.73595 0.12696 -0.39644 0.9133 0.09333 0.94852 0.28819 -0.13135 -0.34846 -0.15735 0.92401 -0.76873 -0.56935 -0.29136 0.73022 0.59322 0.33891 0.28986 0.15998 -0.9436 -0.34404 -0.0314 0.93844 -0.53813 -0.81753 -0.20502 0.49541 0.8457 0.19849 0.30149 0.05683 -0.95178</float_array>
          <technique_common>
            <accessor source="#norm_0-array" count="576" stride="3">
              <param name="X" type="float"/>
              <param name="Y" type="float"/>
              <param name="Z" type="float"/>
            </accessor>
          </technique_common>
        </source>
        <source id="uvs_0">
          <float_array id="uvs_0-array" count="792">0.17542 0.83642 0.22739 0.83642 0.15024 0.71038 0.20222 0.71175 0.27934 0.83642 0.25416 0.71407 0.33131 0.83642 0.30613 0.71038 0.38325 0.83642 0.35807 0.71175 0.43522 0.83642 0.41005 0.71407 0.48717 0.83642 0.46199 0.71038 0.12082 0.56227 0.1728 0.56423 0.22474 0.56554 0.27671 0.56227 0.32865 0.56423 0.38063 0.56554 0.43257 0.56227 0.1442 0.42531 0.09226 0.42332 0.19617 0.42009 0.24812 0.42332 0.30009 0.42531 0.35203 0.42009 0.404 0.42332 0.11652 0.28269 0.06458 0.28523 0.16849 0.28303 0.22044 0.28523 0.27241 0.28269 0.32435 0.28303 0.37632 0.28523 0.03552 0.13883 0.0875 0.13858 0.13944 0.13495 0.19141 0.13883 0.24335 0.13858 0.29533 0.13495 0.34727 0.13883 0.01001 0.01001 0.06195 0.01135 0.11393 0.01022 0.16587 0.01001 0.21784 0.01135 0.26978 0.01022 0.32176 0.01001 0.22736 0.83636 0.20164 0.70757 0.17542 0.83636 0.14966 0.70956 0.27934 0.83636 0.25358 0.71105 0.33128 0.83636 0.30555 0.70956 0.38325 0.83636 0.35749 0.70757 0.43519 0.83636 0.40947 0.71105 0.48717 0.83636 0.46141 0.70956 0.17325 0.567 0.12131 0.5623 0.22523 0.56734 0.27717 0.5623 0.32914 0.567 0.38108 0.56734 0.43306 0.5623 0.14438 0.42717 0.09241 0.42399 0.19633 0.42003 0.24827 0.42399 0.30024 0.42717 0.35221 0.42003 0.40416 0.42399 0.06561 0.29035 0.11759 0.28675 0.16953 0.28822 0.2215 0.29035 0.27345 0.28675 0.32542 0.28822 0.37736 0.29035 0.52165 0.704 0.52922 0.66625 0.46455 0.704 0.47212 0.66625 0.57875 0.704 0.58632 0.66625 0.63585 0.704 0.64339 0.66625 0.69292 0.704 0.70049 0.66625 0.56081 0.51006 0.56951 0.46568 0.50371 0.51006 0.51241 0.46883 0.61788 0.51006 0.62661 0.46883 0.67498 0.51006 0.68368 0.46568 0.73208 0.51006 0.74078 0.46883 0.57842 0.42213 0.52132 0.42369 0.63552 0.42369 0.69259 0.42213 0.74969 0.42369 0.45222 0.41353 0.45882 0.38057 0.40587 0.41353 0.41246 0.38057 0.49858 0.41353 0.50517 0.38057 0.54494 0.41353 0.55153 0.38057 0.59133 0.41353 0.59792 0.38057 0.42579 0.31382 0.47218 0.31382 0.4359 0.26682 0.48225 0.26337 0.51854 0.31382 0.52861 0.26682 0.5649 0.31382 0.575 0.26337 0.61126 0.31382 0.62136 0.26682 0.44459 0.22083 0.49095 0.22242 0.53731 0.22083 0.5837 0.22242 0.63005 0.22083 0.50011 0.17542 0.45375 0.17621 0.54646 0.17621 0.59285 0.17542 0.63921 0.17621 0.46391 0.12067 0.51027 0.125 0.55663 0.12067 0.60298 0.125 0.64937 0.12067 0.47435 0.06961 0.52071 0.07511 0.56706 0.06961 0.61342 0.07511 0.65978 0.06961 0.42549 0.31544 0.47185 0.31544 0.43577 0.26649 0.48213 0.2645 0.5182 0.31544 0.52849 0.26649 0.56456 0.31544 0.57488 0.2645 0.61092 0.31544 0.62123 0.26649 0.44475 0.22044 0.4911 0.22172 0.53746 0.22044 0.58382 0.22172 0.63018 0.22044 0.50023 0.1753 0.45384 0.17524 0.54659 0.17524 0.59294 0.1753 0.6393 0.17524 0.51003 0.12531 0.46367 0.12326 0.55638 0.12326 0.60277 0.12531 0.64913 0.12326 0.47401 0.0701 0.5204 0.07746 0.56676 0.0701 0.61312 0.07746 0.65947 0.0701 0.52171 0.97644 0.57356 0.97644 0.51372 0.9364 0.56554 0.9364 0.62542 0.97644 0.61739 0.9364 0.67727 0.97644 0.66924 0.9364 0.72912 0.97644 0.72109 0.9364 0.5056 0.89877 0.55745 0.89605 0.6093 0.89877 0.66115 0.89605 0.713 0.89877 0.49745 0.85537 0.5493 0.86123 0.60115 0.85537 0.653 0.86123 0.70486 0.85537 0.54039 0.81207 0.48854 0.81042 0.59224 0.81042 0.64409 0.81207 0.69591 0.81042 0.53108 0.7611 0.47923 0.7691 0.58293 0.7691 0.63478 0.7611 0.68664 0.7691 0.52092 0.7105 0.46907 0.71618 0.57277 0.71618 0.62462 0.7105 0.67647 0.71618 0.20615 0.98999 0.25864 0.98999 0.18763 0.89746 0.24134 0.89746 0.31037 0.98999 0.28996 0.89746 0.36116 0.98999 0.3422 0.89746 0.41298 0.98999 0.39637 0.89746 0.46556 0.98999 0.44548 0.89746 0.5179 0.98999 0.49937 0.89746 0.23408 0.86987 0.28718 0.87555 0.3907 0.87359 0.44261 0.87341 0.46553 0.35609 0.41719 0.35746 0.51146 0.35762 0.5544 0.35618 0.60265 0.35746 0.46773 0.33601 0.48491 0.01379 0.53127 0.01782 0.57762 0.01889 0.62401 0.01437 0.67037 0.01379 0.56017 0.33744 0.53087 0.02091 0.48451 0.01614 0.57726 0.01709 0.62362 0.0155 0.66997 0.01614 0.17066 0.91855 0.15149 0.93771 0.18983 0.93771 0.17066 0.93771 0.17066 0.95688 0.16654 0.9826 0.1886 0.98999 0.17396 0.96054 0.18128 0.97525 0.19602 0.96793 0.60173 0.59191 0.65883 0.58782 0.54463 0.58782 0.71593 0.59191 0.48756 0.59191</float_array>
          <technique_common>
            <accessor source="#uvs_0-array" count="792" stride="2">
              <param name="S" type="float"/>
              <param name="T" type="float"/>
            </accessor>
          </technique_common>
        </source>
        <vertices id="vert_0">
          <input semantic="POSITION" source="#pos_0"/>
        </vertices>
        <triangles count="380" material="mat_0">
          <input semantic="VERTEX" source="#vert_0" offset="0"/>
          <input semantic="NORMAL" source="#norm_0" offset="1"/>
          <p>0 0 1 0 2 0 1 0 3 0 2 0 4 1 5 1 1 1 5 1 3 1 1 1 6 2 7 2 4 2 7 2 5 2 4 2 8 3 9 3 6 3 9 3 7 3 6 3 8 4 10 4 9 4 10 4 11 4 9 4 10 5 12 5 11 5 12 5 13 5 11 5 2 6 3 6 14 6 3 6 15 6 14 6 16 7 15 7 5 7 15 7 3 7 5 7 7 8 17 8 5 8 17 8 16 8 5 8 7 9 9 9 17 9 9 9 18 9 17 9 9 10 11 10 18 10 11 10 19 10 18 10 11 11 13 11 19 11 13 11 20 11 19 11 15 12 21 12 14 12 21 12 22 12 14 12 16 13 23 13 15 13 23 13 21 13 15 13 16 14 17 14 23 14 17 14 24 14 23 14 17 15 18 15 24 15 18 15 25 15 24 15 19 16 26 16 18 16 26 16 25 16 18 16 19 17 20 17 26 17 20 17 27 17 26 17 21 18 28 18 22 18 28 18 29 18 22 18 21 19 23 19 28 19 23 19 30 19 28 19 24 20 31 20 23 20 31 20 30 20 23 20 25 21 32 21 24 21 32 21 31 21 24 21 25 22 26 22 32 22 26 22 33 22 32 22 26 23 27 23 33 23 27 23 34 23 33 23 29 24 28 24 35 24 28 24 36 24 35 24 30 25 37 25 28 25 37 25 36 25 28 25 31 26 38 26 30 26 38 26 37 26 30 26 32 27 39 27 31 27 39 27 38 27 31 27 33 28 40 28 32 28 40 28 39 28 32 28 33 29 34 29 40 29 34 29 41 29 40 29 35 30 36 30 42 30 36 30 43 30 42 30 36 31 37 31 43 31 37 31 44 31 43 31 37 32 38 32 44 32 38 32 45 32 44 32 38 33 39 33 45 33 39 33 46 33 45 33 40 34 47 34 39 34 47 34 46 34 39 34 41 35 48 35 40 35 48 35 47 35 40 35 49 36 50 36 51 36 50 36 52 36 51 36 49 37 53 37 50 37 53 37 54 37 50 37 53 38 55 38 54 38 55 38 56 38 54 38 55 39 57 39 56 39 57 39 58 39 56 39 59 40 60 40 57 40 60 40 58 40 57 40 61 41 62 41 59 41 62 41 60 41 59 41 63 42 64 42 50 42 64 42 52 42 50 42 54 43 65 43 50 43 65 43 63 43 50 43 65 44 54 44 66 44 54 44 56 44 66 44 66 45 56 45 67 45 56 45 58 45 67 45 60 46 68 46 58 46 68 46 67 46 58 46 62 47 69 47 60 47 69 47 68 47 60 47 63 48 70 48 64 48 70 48 71 48 64 48 65 49 72 49 63 49 72 49 70 49 63 49 65 50 66 50 72 50 66 50 73 50 72 50 66 51 67 51 73 51 67 51 74 51 73 51 68 52 75 52 67 52 75 52 74 52 67 52 68 53 69 53 75 53 69 53 76 53 75 53 77 54 71 54 78 54 71 54 70 54 78 54 70 55 72 55 78 55 72 55 79 55 78 55 73 56 80 56 72 56 80 56 79 56 72 56 81 57 80 57 74 57 80 57 73 57 74 57 74 58 75 58 81 58 75 58 82 58 81 58 75 59 76 59 82 59 76 59 83 59 82 59 84 60 85 60 86 60 85 60 87 60 86 60 84 61 88 61 85 61 88 61 89 61 85 61 88 62 90 62 89 62 90 62 91 62 89 62 92 63 93 63 90 63 93 63 91 63 90 63 94 64 95 64 96 64 95 64 97 64 96 64 94 65 98 65 95 65 98 65 99 65 95 65 100 66 101 66 98 66 101 66 99 66 98 66 102 67 103 67 100 67 103 67 101 67 100 67 95 68 104 68 97 68 104 68 105 68 97 68 95 69 99 69 104 69 99 69 106 69 104 69 99 70 101 70 106 70 101 70 107 70 106 70 103 71 108 71 101 71 108 71 107 71 101 71 109 72 110 72 111 72 110 72 112 72 111 72 113 73 114 73 109 73 114 73 110 73 109 73 113 74 115 74 114 74 115 74 116 74 114 74 115 75 117 75 116 75 117 75 118 75 116 75 119 76 120 76 121 76 120 76 122 76 121 76 120 77 123 77 122 77 123 77 124 77 122 77 125 78 126 78 123 78 126 78 124 78 123 78 125 79 127 79 126 79 127 79 128 79 126 79 121 80 122 80 129 80 122 80 130 80 129 80 124 81 131 81 122 81 131 81 130 81 122 81 124 82 126 82 131 82 126 82 132 82 131 82 126 83 128 83 132 83 128 83 133 83 132 83 134 84 135 84 130 84 135 84 129 84 130 84 136 85 134 85 131 85 134 85 130 85 131 85 136 86 131 86 137 86 131 86 132 86 137 86 137 87 132 87 138 87 132 87 133 87 138 87 135 88 134 88 139 88 134 88 140 88 139 88 136 89 141 89 134 89 141 89 140 89 134 89 141 90 136 90 142 90 136 90 137 90 142 90 143 91 142 91 138 91 142 91 137 91 138 91 139 92 140 92 144 92 140 92 145 92 144 92 141 93 146 93 140 93 146 93 145 93 140 93 142 94 147 94 141 94 147 94 146 94 141 94 143 95 148 95 142 95 148 95 147 95 142 95 149 96 150 96 151 96 150 96 152 96 151 96 150 97 153 97 152 97 153 97 154 97 152 97 155 98 156 98 153 98 156 98 154 98 153 98 155 99 157 99 156 99 157 99 158 99 156 99 151 100 152 100 159 100 152 100 160 100 159 100 154 101 161 101 152 101 161 101 160 101 152 101 154 102 156 102 161 102 156 102 162 102 161 102 156 103 158 103 162 103 158 103 163 103 162 103 160 104 164 104 159 104 164 104 165 104 159 104 161 105 166 105 160 105 166 105 164 105 160 105 161 106 162 106 166 106 162 106 167 106 166 106 162 107 163 107 167 107 163 107 168 107 167 107 169 108 170 108 164 108 170 108 165 108 164 108 171 109 169 109 166 109 169 109 164 109 166 109 171 110 166 110 172 110 166 110 167 110 172 110 168 111 173 111 167 111 173 111 172 111 167 111 174 112 170 112 175 112 170 112 169 112 175 112 171 113 176 113 169 113 176 113 175 113 169 113 171 114 172 114 176 114 172 114 177 114 176 114 173 115 178 115 172 115 178 115 177 115 172 115 179 116 180 116 181 116 180 116 182 116 181 116 183 117 184 117 180 117 184 117 182 117 180 117 185 118 186 118 183 118 186 118 184 118 183 118 185 119 187 119 186 119 187 119 188 119 186 119 181 120 182 120 189 120 182 120 190 120 189 120 182 121 184 121 190 121 184 121 191 121 190 121 186 122 192 122 184 122 192 122 191 122 184 122 186 123 188 123 192 123 188 123 193 123 192 123 189 124 190 124 194 124 190 124 195 124 194 124 191 125 196 125 190 125 196 125 195 125 190 125 191 126 192 126 196 126 192 126 197 126 196 126 193 127 198 127 192 127 198 127 197 127 192 127 195 128 199 128 194 128 199 128 200 128 194 128 196 129 201 129 195 129 201 129 199 129 195 129 196 130 197 130 201 130 197 130 202 130 201 130 202 131 197 131 203 131 197 131 198 131 203 131 199 132 204 132 200 132 204 132 205 132 200 132 204 133 199 133 206 133 199 133 201 133 206 133 202 134 207 134 201 134 207 134 206 134 201 134 202 135 203 135 207 135 203 135 208 135 207 135 204 136 209 136 205 136 209 136 210 136 205 136 211 137 209 137 206 137 209 137 204 137 206 137 206 138 207 138 211 138 207 138 212 138 211 138 207 139 208 139 212 139 208 139 213 139 212 139 214 140 215 140 216 140 215 140 217 140 216 140 215 141 218 141 217 141 218 141 219 141 217 141 220 142 221 142 218 142 221 142 219 142 218 142 220 143 222 143 221 143 222 143 223 143 221 143 224 144 225 144 222 144 225 144 223 144 222 144 226 145 227 145 224 145 227 145 225 145 224 145 216 146 228 146 0 146 228 146 1 146 0 146 229 147 4 147 228 147 4 147 1 147 228 147 221 148 6 148 229 148 6 148 4 148 229 148 221 149 223 149 6 149 223 149 8 149 6 149 223 150 225 150 8 150 225 150 10 150 8 150 227 151 12 151 225 151 12 151 10 151 225 151 216 152 217 152 51 152 217 152 49 152 51 152 219 153 53 153 217 153 53 153 49 153 217 153 55 154 53 154 221 154 53 154 219 154 221 154 221 155 230 155 55 155 230 155 57 155 55 155 231 156 59 156 230 156 59 156 57 156 230 156 227 157 61 157 231 157 61 157 59 157 231 157 232 158 233 158 110 158 233 158 112 158 110 158 234 159 232 159 114 159 232 159 110 159 114 159 235 160 234 160 116 160 234 160 114 160 116 160 235 161 116 161 236 161 116 161 118 161 236 161 119 162 233 162 120 162 233 162 237 162 120 162 234 163 123 163 237 163 123 163 120 163 237 163 234 164 235 164 123 164 235 164 125 164 123 164 236 165 127 165 235 165 127 165 125 165 235 165 144 166 145 166 238 166 145 166 239 166 238 166 145 167 146 167 239 167 146 167 240 167 239 167 147 168 241 168 146 168 241 168 240 168 146 168 147 169 148 169 241 169 148 169 242 169 241 169 233 170 232 170 149 170 232 170 150 170 149 170 234 171 153 171 232 171 153 171 150 171 232 171 234 172 243 172 153 172 243 172 155 172 153 172 236 173 157 173 243 173 157 173 155 173 243 173 175 174 244 174 174 174 244 174 245 174 174 174 244 175 175 175 246 175 175 175 176 175 246 175 177 176 247 176 176 176 247 176 246 176 176 176 247 177 177 177 248 177 177 177 178 177 248 177 249 178 250 178 251 178 250 178 252 178 251 178 250 179 253 179 251 179 250 180 251 180 252 180 254 181 255 181 256 181 255 181 257 181 256 181 255 182 258 182 256 182 255 183 256 183 257 183 98 184 259 184 100 184 259 184 260 184 100 184 261 185 259 185 94 185 259 185 98 185 94 185 102 186 100 186 262 186 100 186 260 186 262 186 261 187 94 187 263 187 94 187 96 187 263 187 89 188 91 188 259 188 91 188 260 188 259 188 89 189 259 189 85 189 259 189 261 189 85 189 93 190 262 190 91 190 262 190 260 190 91 190 87 191 85 191 263 191 85 191 261 191 263 191</p>
        </triangles>
      </mesh>
    </geometry>
    <geometry id="geometry_9248385a_e3d2_4f94_80f0_ce365663a1f0">
      <mesh>
        <source id="pos_1">
          <float_array id="pos_1-array" count="396">21.02127457 39.3486557 -11.2685318 13.32065773 46.92702103 -8.18388939 11.45295715 35.98672104 -6.43200684 15.62081432 30.3076458 -15.18539333 11.45295715 35.98672104 -6.43200684 4.5826211 32.29840851 -14.52149296 11.45295715 35.98672104 -6.43200684 3.16104031 42.56969833 -10.19432735 11.45295715 35.98672104 -6.43200684 13.32065773 46.92702103 -8.18388939 11.45295715 35.98672104 -6.43200684 18.64282036 48.00923157 -18.01998901 20.06445694 37.73794174 -22.34709549 11.77248383 44.32092285 -26.10943604 9.90478325 33.38062286 -24.35763168 11.77248383 44.32092285 -26.10943604 2.20422411 40.95898819 -21.27302742 11.77248383 44.32092285 -26.10943604 7.6046257 50 -17.35608864 11.77248383 44.32092285 -26.10943604 18.64282036 48.00923157 -18.01998901 11.77248383 44.32092285 -26.10943604 -15.67961597 41.68769073 11.23097324 -1.650666 40.77041245 13.30445576 -6.78829813 49.23447037 3.11055398 -9.67934895 29.05294991 13.74365711 -1.650666 40.77041245 13.30445576 2.92031479 28.79111862 7.17618036 -1.650666 40.77041245 13.30445576 4.70708275 41.26403427 0.60456562 -1.650666 40.77041245 13.30445576 -6.78829813 49.23447037 3.11055398 -1.650666 40.77041245 13.30445576 -17.99223518 42.74819565 -2.75042534 -13.42124271 30.76890182 -8.87870121 -19.77898216 30.27528 3.82117963 -13.42124271 30.76890182 -8.87870121 -8.28360271 22.30484581 1.31519306 -13.42124271 30.76890182 -8.87870121 0.60770923 29.85181427 -6.80521774 -13.42124271 30.76890182 -8.87870121 -5.39255238 42.48636246 -9.31790161 -13.42124271 30.76890182 -8.87870121 -17.99223518 42.74819565 -2.75042534 -23.34247971 32.40868378 12.90401459 -21.05673981 37.3505249 5.6402545 -27.25269318 30.75979424 4.87904596 -24.66655731 23.85334969 10.17258263 -27.25269318 30.75979424 4.87904596 -23.19906235 23.50760269 1.22069561 -27.25269318 30.75979424 4.87904596 -20.96797943 31.84936714 -1.58044267 -27.25269318 30.75979424 4.87904596 -21.05673981 37.3505249 5.6402545 -27.25269318 30.75979424 4.87904596 -14.64113045 34.51748276 11.40425396 -16.872118 26.17571831 14.20537853 -10.58746243 27.26529121 7.74591017 -16.78347206 20.67455673 6.98470116 -10.58746243 27.26529121 7.74591017 -14.49769402 25.61639595 -0.27907559 -10.58746243 27.26529121 7.74591017 -13.17363644 34.17173386 2.452353 -10.58746243 27.26529121 7.74591017 -14.64113045 34.51748276 11.40425396 -10.58746243 27.26529121 7.74591017 0.05052056 25.87163734 2.27897477 3.41480899 29.59851074 4.22733736 5.28559065 25.69120407 1.02768111 2.64524722 21.15267563 2.22505808 5.28559065 25.69120407 1.02768111 7.61315298 21.96297646 4.14008617 5.28559065 25.69120407 1.02768111 8.08876991 27.18292236 5.37755156 5.28559065 25.69120407 1.02768111 3.41480899 29.59851074 4.22733736 5.28559065 25.69120407 1.02768111 -0.38175169 27.47479439 7.402215 -0.85736507 22.25484467 6.16474962 1.94580412 23.74656487 10.51461124 3.81660581 19.83925629 7.31496429 1.94580412 23.74656487 10.51461124 7.18087053 23.56613159 9.26332664 1.94580412 23.74656487 10.51461124 4.58614826 28.28509331 9.31724262 1.94580412 23.74656487 10.51461124 -0.38175169 27.47479439 7.402215 1.94580412 23.74656487 10.51461124 26.97613335 22.08972359 -21.27186584 22.42132378 18.1521244 -24.42565727 22.56842422 24.83497238 -25.6576767 23.74365616 17.20333099 -17.82641411 22.42132378 18.1521244 -24.42565727 17.3379097 16.92843819 -20.08267593 22.42132378 18.1521244 -24.42565727 16.61164474 21.64493942 -24.92276764 22.42132378 18.1521244 -24.42565727 22.56842422 24.83497238 -25.6576767 22.42132378 18.1521244 -24.42565727 23.98164749 28.01628685 -19.81987572 18.89837074 26.79260063 -15.47689438 24.70803261 23.29964828 -14.97986221 18.89837074 26.79260063 -15.47689438 18.75117683 20.10980797 -14.24489498 18.89837074 26.79260063 -15.47689438 14.34342575 22.85486603 -18.63064957 18.89837074 26.79260063 -15.47689438 17.57605743 27.74147034 -22.07615471 18.89837074 26.79260063 -15.47689438 23.98164749 28.01628685 -19.81987572 3.88354611 41.49718475 -8.82358265 8.81741905 43.93331528 -4.22563171 5.89586449 37.45769882 -3.25100446 -1.02677023 37.85209274 -5.07895613 5.89586449 37.45769882 -3.25100446 0.87236178 38.03562546 1.83331192 5.89586449 37.45769882 -3.25100446 6.95640516 41.79409409 2.36070251 5.89586449 37.45769882 -3.25100446 8.81741905 43.93331528 -4.22563171 5.89586449 37.45769882 -3.25100446 3.7003808 48.32997894 -6.65592957 -2.38364911 44.57151413 -7.18331194 -1.32312739 48.90771103 -1.57161486 -4.24466372 42.43209839 -0.59698975 -1.32312739 48.90771103 -1.57161486 0.68920422 44.86842346 4.00097275 -1.32312739 48.90771103 -1.57161486 5.59951687 48.51351547 0.25633839 -1.32312739 48.90771103 -1.57161486 3.7003808 48.32997894 -6.65592957 -1.32312739 48.90771103 -1.57161486</float_array>
          <technique_common>
            <accessor source="#pos_1-array" count="396" stride="3">
              <param name="X" type="float"/>
              <param name="Y" type="float"/>
              <param name="Z" type="float"/>
            </accessor>
          </technique_common>
        </source>
        <source id="norm_1">
          <float_array id="norm_1-array" count="360">0.4301 0.07068 0.90002 0.52037 -0.58168 0.62517 -0.12491 -0.85842 0.49748 -0.614 -0.37709 0.69341 -0.271 0.19715 0.94217 0.614 0.37709 -0.69341 0.271 -0.19715 -0.94217 -0.4301 -0.07068 -0.90002 -0.52037 0.58168 -0.62517 0.12491 0.85842 -0.49748 0.71233 0.54262 0.44514 0.85842 -0.51296 0.00043 -0.18567 -0.96075 -0.20618 -0.97705 -0.18192 0.11084 -0.42204 0.74722 0.51335 0.97705 0.18192 -0.11084 0.42204 -0.74722 -0.51335 -0.71233 -0.54262 -0.44514 -0.85842 0.51296 -0.00043 0.18567 0.96075 0.20618 -0.04688 0.75677 0.652 -0.1366 0.13041 0.98199 0.44066 -0.26984 0.85617 0.88717 0.10913 0.44838 0.58583 0.74364 0.32218 -0.88717 -0.10913 -0.44838 -0.58583 -0.74364 -0.32218 0.04688 -0.75677 -0.652 0.1366 -0.13041 -0.98199 -0.44066 0.26984 -0.85617 -0.55406 0.81817 0.15369 -0.69924 -0.19532 0.68767 0.23481 -0.84295 0.48405 0.95724 -0.22974 -0.17576 0.46971 0.7969 -0.37992 -0.95724 0.22974 0.17576 -0.46971 -0.7969 0.37992 0.55406 -0.81817 -0.15369 0.69924 0.19532 -0.68767 -0.23481 0.84295 -0.48405 -0.7235 0.65499 0.21796 -0.89889 -0.00076 0.43815 -0.89193 -0.43324 -0.12949 -0.71224 -0.04474 -0.70052 -0.60814 0.62783 -0.48579 0.71224 0.04474 0.70052 0.60814 -0.62783 0.48579 0.7235 -0.65499 -0.21796 0.89889 0.00076 -0.43815 0.89193 0.43324 0.12949 -0.11078 0.83758 0.53499 -0.39454 -0.22349 0.89129 -0.38328 -0.92325 -0.02719 -0.09253 -0.29463 -0.95111 0.0759 0.7936 -0.60369 0.09253 0.29463 0.95111 -0.0759 -0.7936 0.60369 0.11078 -0.83758 -0.53499 0.39454 0.22349 -0.89129 0.38328 0.92325 0.02719 -0.17167 0.57366 -0.8009 -0.23469 -0.11802 -0.96487 0.38466 -0.43812 -0.81246 0.83047 0.05573 -0.55428 0.48662 0.68105 -0.54714 -0.83047 -0.05573 0.55428 -0.48662 -0.68105 0.54714 0.17167 -0.57366 0.8009 0.23469 0.11802 0.96487 -0.38466 0.43812 0.81246 -0.63579 0.71972 -0.27885 -0.73778 -0.39946 -0.54418 0.26435 -0.91739 -0.29756 0.98569 -0.11829 0.12018 0.42936 0.89349 0.13175 -0.98569 0.11829 -0.12018 -0.42936 -0.89349 -0.13175 0.63579 -0.71972 0.27885 0.73778 0.39946 0.54418 -0.26435 0.91739 0.29756 0.64803 -0.15186 -0.74633 0.72427 -0.64708 -0.23817 0.09885 -0.98199 -0.16099 -0.36393 -0.69378 -0.62148 -0.02454 -0.18073 -0.98321 0.36393 0.69378 0.62148 0.02454 0.18073 0.98321 -0.64803 0.15186 0.74633 -0.72427 0.64708 0.23817 -0.09885 0.98199 0.16099 0.74929 0.48824 -0.44746 0.87268 -0.31306 0.3748 -0.13932 -0.85495 0.49965 -0.88812 -0.38859 -0.24543 -0.33894 0.44151 -0.83077 0.88812 0.38859 0.24543 0.33894 -0.44151 0.83077 -0.74929 -0.48824 0.44746 -0.87268 0.31306 -0.3748 0.13932 0.85495 -0.49965 0.72195 -0.40965 -0.55763 0.11646 -0.78368 -0.61013 -0.06876 -0.99661 0.04535 0.42228 -0.75414 0.50295 0.91095 -0.39137 0.13028 -0.42228 0.75414 -0.50295 -0.91095 0.39137 -0.13028 -0.72195 0.40965 0.55763 -0.11646 0.78368 0.61013 0.06876 0.99661 -0.04535 0.58693 0.25907 -0.76708 -0.39277 -0.34614 -0.85199 -0.69247 -0.69063 0.20859 0.10202 -0.29832 0.949 0.89273 0.28864 0.34599 -0.10202 0.29832 -0.949 -0.89273 -0.28864 -0.34599 -0.58693 -0.25907 0.76708 0.39277 0.34614 0.85199 0.69247 0.69063 -0.20859</float_array>
          <technique_common>
            <accessor source="#norm_1-array" count="360" stride="3">
              <param name="X" type="float"/>
              <param name="Y" type="float"/>
              <param name="Z" type="float"/>
            </accessor>
          </technique_common>
        </source>
        <source id="uvs_1">
          <float_array id="uvs_1-array" count="396">0.08841 0.15378 0.01001 0.15378 0.04923 0.01001 0.16684 0.15378 0.12763 0.01001 0.24528 0.15378 0.20606 0.01001 0.32368 0.15378 0.28449 0.01001 0.40211 0.15378 0.3629 0.01001 0.04923 0.29756 0.12763 0.29756 0.08841 0.44133 0.20606 0.29756 0.16684 0.44133 0.28449 0.29756 0.24528 0.44133 0.3629 0.29756 0.32368 0.44133 0.44133 0.29756 0.40211 0.44133 0.1092 0.6263 0.0596 0.44447 0.01001 0.6263 0.20838 0.6263 0.15879 0.44447 0.30757 0.6263 0.25797 0.44447 0.40675 0.6263 0.35716 0.44447 0.50594 0.6263 0.45634 0.44447 0.0596 0.80816 0.1092 0.98999 0.15879 0.80816 0.20838 0.98999 0.25797 0.80816 0.30757 0.98999 0.35716 0.80816 0.40675 0.98999 0.45634 0.80816 0.50594 0.98999 0.55553 0.80816 0.46419 0.12784 0.40083 0.12784 0.43251 0.01166 0.52757 0.12784 0.49586 0.01166 0.59093 0.12784 0.55925 0.01166 0.65429 0.12784 0.62261 0.01166 0.71764 0.12784 0.68596 0.01166 0.43251 0.244 0.49586 0.244 0.46419 0.36015 0.55925 0.244 0.52757 0.36015 0.62261 0.244 0.59093 0.36015 0.68596 0.244 0.65429 0.36015 0.74932 0.244 0.71764 0.36015 0.7481 0.41624 0.7105 0.41624 0.7293 0.34733 0.78567 0.41624 0.76687 0.34733 0.82327 0.41624 0.80447 0.34733 0.86087 0.41624 0.84207 0.34733 0.89843 0.41624 0.87967 0.34733 0.7293 0.48515 0.76687 0.48515 0.7481 0.55406 0.80447 0.48515 0.78567 0.55406 0.84207 0.48515 0.82327 0.55406 0.87967 0.48515 0.86087 0.55406 0.91723 0.48515 0.89843 0.55406 0.58809 0.73186 0.56435 0.64489 0.54064 0.73186 0.63552 0.73186 0.6118 0.64489 0.68294 0.73186 0.65923 0.64489 0.7304 0.73186 0.70669 0.64489 0.77783 0.73186 0.75411 0.64489 0.56435 0.81884 0.58809 0.90582 0.6118 0.81884 0.63552 0.90582 0.65923 0.81884 0.68294 0.90582 0.70669 0.81884 0.7304 0.90582 0.75411 0.81884 0.77783 0.90582 0.80157 0.81884 0.51552 0.45622 0.46547 0.45622 0.49049 0.36448 0.56557 0.45622 0.54054 0.36448 0.61562 0.45622 0.59059 0.36448 0.66567 0.45622 0.64064 0.36448 0.71572 0.45622 0.69069 0.36448 0.49049 0.54799 0.54054 0.54799 0.51552 0.63976 0.59059 0.54799 0.56557 0.63976 0.64064 0.54799 0.61562 0.63976 0.69069 0.54799 0.66567 0.63976 0.74075 0.54799 0.71572 0.63976</float_array>
          <technique_common>
            <accessor source="#uvs_1-array" count="396" stride="2">
              <param name="S" type="float"/>
              <param name="T" type="float"/>
            </accessor>
          </technique_common>
        </source>
        <vertices id="vert_1">
          <input semantic="POSITION" source="#pos_1"/>
        </vertices>
        <triangles count="120" material="mat_1">
          <input semantic="VERTEX" source="#vert_1" offset="0"/>
          <input semantic="NORMAL" source="#norm_1" offset="1"/>
          <p>0 0 1 0 2 0 3 1 0 1 4 1 5 2 3 2 6 2 7 3 5 3 8 3 9 4 7 4 10 4 11 5 12 5 13 5 12 6 14 6 15 6 14 7 16 7 17 7 16 8 18 8 19 8 18 9 20 9 21 9 0 10 11 10 1 10 3 11 12 11 0 11 5 12 14 12 3 12 7 13 16 13 5 13 9 14 18 14 7 14 11 15 0 15 12 15 12 16 3 16 14 16 14 17 5 17 16 17 16 18 7 18 18 18 18 19 9 19 20 19 22 20 23 20 24 20 25 21 26 21 22 21 27 22 28 22 25 22 29 23 30 23 27 23 31 24 32 24 29 24 33 25 34 25 35 25 35 26 36 26 37 26 37 27 38 27 39 27 39 28 40 28 41 28 41 29 42 29 43 29 22 30 24 30 33 30 25 31 22 31 35 31 27 32 25 32 37 32 29 33 27 33 39 33 31 34 29 34 41 34 33 35 35 35 22 35 35 36 37 36 25 36 37 37 39 37 27 37 39 38 41 38 29 38 41 39 43 39 31 39 44 40 45 40 46 40 47 41 44 41 48 41 49 42 47 42 50 42 51 43 49 43 52 43 53 44 51 44 54 44 55 45 56 45 57 45 56 46 58 46 59 46 58 47 60 47 61 47 60 48 62 48 63 48 62 49 64 49 65 49 44 50 55 50 45 50 47 51 56 51 44 51 49 52 58 52 47 52 51 53 60 53 49 53 53 54 62 54 51 54 55 55 44 55 56 55 56 56 47 56 58 56 58 57 49 57 60 57 60 58 51 58 62 58 62 59 53 59 64 59 66 60 67 60 68 60 69 61 66 61 70 61 71 62 69 62 72 62 73 63 71 63 74 63 75 64 73 64 76 64 77 65 78 65 79 65 78 66 80 66 81 66 80 67 82 67 83 67 82 68 84 68 85 68 84 69 86 69 87 69 66 70 77 70 67 70 69 71 78 71 66 71 71 72 80 72 69 72 73 73 82 73 71 73 75 74 84 74 73 74 77 75 66 75 78 75 78 76 69 76 80 76 80 77 71 77 82 77 82 78 73 78 84 78 84 79 75 79 86 79 88 80 89 80 90 80 91 81 92 81 88 81 93 82 94 82 91 82 95 83 96 83 93 83 97 84 98 84 95 84 99 85 100 85 101 85 101 86 102 86 103 86 103 87 104 87 105 87 105 88 106 88 107 88 107 89 108 89 109 89 88 90 90 90 99 90 91 91 88 91 101 91 93 92 91 92 103 92 95 93 93 93 105 93 97 94 95 94 107 94 99 95 101 95 88 95 101 96 103 96 91 96 103 97 105 97 93 97 105 98 107 98 95 98 107 99 109 99 97 99 110 100 111 100 112 100 113 101 110 101 114 101 115 102 113 102 116 102 117 103 115 103 118 103 119 104 117 104 120 104 121 105 122 105 123 105 122 106 124 106 125 106 124 107 126 107 127 107 126 108 128 108 129 108 128 109 130 109 131 109 110 110 121 110 111 110 113 111 122 111 110 111 115 112 124 112 113 112 117 113 126 113 115 113 119 114 128 114 117 114 121 115 110 115 122 115 122 116 113 116 124 116 124 117 115 117 126 117 126 118 117 118 128 118 128 119 119 119 130 119</p>
        </triangles>
      </mesh>
    </geometry>
  </library_geometries>
  <library_visual_scenes>
    <visual_scene id="DefaultScene">
      <node id="node_2f7fd36e_c52f_4cdc_a464_30bb3cbd9619" type="NODE">
        <matrix>1 0 0 0 0 1 0 0 0 0 1 0 0 0 0 1</matrix>
        <node id="node_da33516c_e5a2_40ec_87ea_51bab9c144b6" type="NODE">
          <matrix>1 0 0 0 0 1 0 0 0 0 1 0 0 0 0 1</matrix>
          <node id="node_da33516c_e5a2_40ec_87ea_51bab9c144b6_mesh0" type="NODE">
            <matrix>1 0 0 0 0 1 0 0 0 0 1 0 0 0 0 1</matrix>
            <instance_geometry url="#geometry_903bb850_2581_4738_af73_330657e30688">
              <bind_material>
                <technique_common>
                  <instance_material symbol="mat_0" target="#mat_0"/>
                </technique_common>
              </bind_material>
            </instance_geometry>
          </node>
        </node>
        <node id="node_f8e9498b_8163_4adc_91ad_1372655d6d6c" type="NODE">
          <matrix>1 0 0 0 0 1 0 0 0 0 1 0 0 0 0 1</matrix>
          <node id="node_f8e9498b_8163_4adc_91ad_1372655d6d6c_mesh0" type="NODE">
            <matrix>1 0 0 0 0 1 0 0 0 0 1 0 0 0 0 1</matrix>
            <instance_geometry url="#geometry_9248385a_e3d2_4f94_80f0_ce365663a1f0">
              <bind_material>
                <technique_common>
                  <instance_material symbol="mat_1" target="#mat_1"/>
                </technique_common>
              </bind_material>
            </instance_geometry>
          </node>
        </node>
      </node>
    </visual_scene>
  </library_visual_scenes>
  <scene>
    <instance_visual_scene url="#DefaultScene"/>
  </scene>
</COLLADA>
